<?xml version="1.0" encoding="UTF-8"?><svg id="Layer_3" xmlns="http://www.w3.org/2000/svg" xmlns:xlink="http://www.w3.org/1999/xlink" viewBox="0 0 450 450"><defs><style>.cls-1{fill:#fff;}.cls-2{fill:#7f6769;}.cls-3{fill:#8a7c6e;}.cls-4{fill:#b9947a;}.cls-5{fill:#a87779;}.cls-6{fill:url(#Dégradé_sans_nom_28-2);}.cls-6,.cls-7{fill-rule:evenodd;}.cls-7{fill:url(#Dégradé_sans_nom_28);}</style><linearGradient id="Dégradé_sans_nom_28" x1="63.08" y1="158.98" x2="350.91" y2="158.98" gradientUnits="userSpaceOnUse"><stop offset="0" stop-color="#d6d3c6"/><stop offset="1" stop-color="#c1bcb0"/></linearGradient><linearGradient id="Dégradé_sans_nom_28-2" x1="81.43" y1="291.81" x2="354.7" y2="291.81" xlink:href="#Dégradé_sans_nom_28"/></defs><g><g><path class="cls-7" d="M68.19,250.88c-3.42-12.65-5.14-25.74-5.11-38.92,.11-39.04,15.33-75.71,42.85-103.27,27.53-27.56,64.1-42.74,102.99-42.74h.41c33.31,.09,64.64,11.17,90.6,32.04,25.19,20.25,43.19,48.65,50.71,79.97l.28,1.16-1.07,.53c-6.52,3.26-13.96,6.66-22.12,10.11-30.33,12.83-69.56,25.88-110.45,36.74-40.9,10.87-81.44,19.01-114.14,22.93-12.78,1.53-24.04,2.39-33.48,2.55l-1.17,.02-.31-1.13Z"/><path class="cls-1" d="M208.92,67.45c.13,0,.27,0,.41,0,67.85,.19,124.63,47.42,139.85,110.86-5.98,2.99-13.23,6.35-22.03,10.07-30.27,12.8-69.42,25.82-110.25,36.67-40.83,10.85-81.29,18.98-113.94,22.89-14.3,1.71-25.15,2.4-33.32,2.54-3.32-12.27-5.09-25.19-5.05-38.52,.22-79.89,64.78-144.51,144.34-144.51m0-3c-39.29,0-76.24,15.33-104.05,43.18-27.81,27.84-43.19,64.89-43.29,104.33-.04,13.31,1.7,26.54,5.16,39.31l.61,2.26,2.34-.04c9.48-.16,20.8-1.02,33.63-2.56,32.77-3.93,73.38-12.09,114.35-22.97,40.96-10.88,80.26-23.95,110.65-36.81,8.18-3.46,15.65-6.88,22.21-10.15l2.13-1.07-.56-2.32c-7.59-31.64-25.78-60.33-51.22-80.79-12.72-10.23-26.92-18.21-42.19-23.71-15.8-5.7-32.4-8.61-49.34-8.66h-.41Z"/></g><g><path class="cls-6" d="M208.53,364.77c-25.98-.07-51.47-7.08-73.7-20.28-21.58-12.8-39.62-31.08-52.19-52.86l-1.21-2.09,2.41-.16c3.33-.22,6.76-.49,10.21-.81,36.41-3.37,83.11-12.3,131.5-25.16,48.39-12.86,93.35-28.27,126.62-43.42l2.53-1.16-.05,2.38c-.74,38.51-16.23,74.6-43.63,101.61-27.42,27.04-63.67,41.93-102.08,41.93,0,0-.42,0-.42,0Z"/><path class="cls-1" d="M353.16,221.2c-1.52,78.76-65.56,142.07-144.22,142.07-.13,0-.27,0-.4,0-53.27-.15-99.7-29.24-124.59-72.39,3.29-.22,6.7-.48,10.25-.81,36.49-3.38,83.28-12.32,131.75-25.2,48.47-12.88,93.52-28.33,126.86-43.5,.12-.06,.24-.11,.37-.17m3.09-4.72l-4.35,2-.13,.06-.23,.1c-33.19,15.11-78.07,30.5-126.38,43.33-48.31,12.83-94.92,21.75-131.25,25.11-3.42,.32-6.84,.59-10.17,.81l-4.81,.32,2.41,4.18c12.69,22,30.92,40.47,52.72,53.4,22.47,13.33,48.22,20.41,74.46,20.49h.41c38.81,0,75.44-15.05,103.15-42.36,27.67-27.29,43.32-63.74,44.07-102.65l.09-4.78h0Z"/></g></g><g><polygon class="cls-5" points="282.68 126.25 283.03 123 280.19 121.82 276.18 122.72 273.23 127.38 273.22 130.47 276.64 130.48 282.68 126.25"/><path class="cls-4" d="M200.38,141.55l-4.18-.02v2.17s.99,0,.99,0c0,0,0,.42,.08,1.08l2.59-.24,1.68-.99,.43-2,2.09-.16,.76-1.75-1.92-.34h-1.67s-.85,2.24-.85,2.24Z"/><polygon class="cls-4" points="190.17 145.35 193.26 145.11 193.61 142.94 191.78 141.51 190.35 143.18 190.17 145.35"/><polygon class="cls-5" points="286.87 124.27 287.1 126.7 283.59 127.35 283.07 132.44 287.33 132.46 293.01 131.98 295.95 128.49 292.87 127.22 291.12 125.29 288.64 121.11 287.41 115.26 282.56 116.23 281.21 118.23 281.2 120.57 283.53 122.17 286.87 124.27"/><path class="cls-3" d="M349.64,177.36c-.36-1.39-1.14-2.82-1.54-4.2h-6.37s-7.27-5.44-7.27-5.44l-7.64,.72-.02,4.65h-2.38s-2.62-1.88-2.62-1.88l-13.22-3.45,.04-8.46-16.81,1.19-5.19,2.77-6.62-.03-3.31-.35-8.08,4.44-.04,8.37-16.53,11.85,1.33,5.08,3.31,.02-.87,4.82-2.38,.83-.15,12.6,1.93,2.22c26.68-8.17,51.51-16.97,72.24-25.67,8.85-3.72,16.15-7.07,22.19-10.07Z"/><path class="cls-3" d="M305.94,240.2l-.9,5.9,10.52,18.25-5.62,10.41,.32,4.84,4.34,4.28-.06,11.77,5.78,7.54-.04,7.41c20.51-24.59,32.89-55.92,33.06-90.09,0-.04,0-.09,0-.13-.26,.12-.52,.23-.78,.35-13.81,6.11-29.45,13.43-46.63,19.45Z"/><path class="cls-2" d="M166.66,278.83c1.6,1.2,2.66,1.38,2.66,1.38l-.12,25.18,3,.85-2.15,11.62,5.15,6.88-1.06,11.54,6.79,11.91,8.65,7.66,8.69,.21,.93-2.76-6.41-5.47,.35-2.68,1.19-3.34,.27-3.34-4.35-.1-2.16-2.77,3.61-3.5,.51-2.67-4.09-1.11,.26-2.51,5.77-.81,8.79-4.14,2.95-5.42,9.25-11.67-2.04-9.21,2.78-4.84,8.44,.3,5.7-4.49,1.93-17.72,5.26-6.11c-3.55,.98-7.02,1.26-10.61,2.21-20.59,5.46-40.64,11.01-59.96,14.93Z"/><path class="cls-2" d="M202.91,222.68l-9.27-.22-5.39-8.68-4.75-2.42-.26,2.65-8.69,.47-3.15-4.56-9.02-1.93-9.29,20.94-7.71,5.44-.28,6.2c19.14-3.63,39.54-8.22,60.24-13.56l-2.42-4.34Z"/><path class="cls-1" d="M307.17,106.45c.11,.1,.22,.2,.33,.3h.01c-.11-.11-.23-.2-.34-.3Z"/><path class="cls-5" d="M277.42,159.67h6.85s4.6-.35,4.6-.35l1.47-3.73,7.32-9.45,4.75,1.09,4.66-4.2,.87,3.34,11.34,8.09-1.36,1.86-5.18-.33,1.88,2.93,3.25,.73,3.7-1.57-.02-4.52,1.68-.83-1.32-1.47-7.54-4.45-1.93-5.83,6.35,.09,1.98,2.07,5.45,4.94,.09,5.8,5.6,6.22,2.29-8.41,3.96-2.16,.66,6.92,3.78,4.4,1.56,.02c-7.88-21.19-20.45-40.03-36.4-55.25l-5.28,2.05-2.97,3.11,.62,3.67,3.5,.56,2.1,5.4,6.05-2.39,.9,7.26-1.84-.03-4.92-.84-5.53,.86-5.45,7.6-7.62,1.09-1.18,6.63,3.16,.81-.98,4.25-7.5-1.64-6.96,1.44-1.56,3.9,1.14,8.29,3.98,2.02Z"/><path class="cls-4" d="M82.18,176.87l5.88,10.15,4.83,.79,.69-3.48-5.72-8.87-1.06-8.6,3.39,.02,1.31,8.85,8.24,12.12-2.14,3.91,5.13,8.02,13.03,3.38v-2.13s5.26,.79,5.26,.79l-.53,3.65,4.06,.78,6.26,1.82,8.93,10.25,10.34,.83,.89-3.07-8.92-1.57-.78-13.53-8.63-1.49,3.51-6.62-1-3.75-11.47,7.6-7.11-.97-2.6-5.63,1.64-5.78,4.02-7.3,9.09-4.63,17.62,.09-.11,5.44,6.34,2.92-.46-9.19,4.6-4.57,9.18-6,.7-4.25,9.2-9.57,9.77-5.4-.84-.69,6.64-6.18,2.37,.61,1.1,1.37,2.55-2.71,.6-.34-2.71-.35-2.79-.95v-2.72s1.46-1.18,1.46-1.18l3.3,.02,1.44,.6,1.34,2.64,1.53-.25v-.17s.51,.09,.51,.09l4.58-.66,.61-2.21,2.62,.61v2.47s-2.47,1.69-2.47,1.69h.08s.33,2.64,.33,2.64l8.2,2.59,.08,.09,1.87-.08,.19-3.66-6.59-3.01-.33-1.79,5.43-1.76,.28-5.27-5.66-3.52-.38-8.85-7.81,3.87h-2.8s.71-6.73,.71-6.73l-10.58-2.6-4.42,3.3-.05,10.21-7.89,2.43-3.25,6.62-3.39,.58,.04-8.51-7.45-1.06-3.71-2.48-1.42-5.45,13.34-7.76,6.45-2.01,.66,4.43,3.64-.15,.26-2.21,3.81-.58,.09-.76-1.69-.69-.33-2.3,4.66-.32,2.81-2.96,.17-.17h.08s.85-.93,.85-.93l9.75-1.14,4.3,3.68-11.38,5.98,14.38,3.56,1.97-4.84,6.27,.03,2.31-4.24-4.48-1.13,.03-5.36-13.95-6.28-9.66,1.06-5.52,2.78,.39,6.98-5.76-.88-.83-3.83,5.53-4.99-9.91-.56-2.88,.92-1.29,3.31,3.72,.7-.78,3.66-6.27,.39-1.03,2.46-9.15,.21s-.23-5.19-.57-5.19c-.42,0,7.12-.13,7.12-.13l5.53-5.33-2.96-1.55-4,3.89-6.6-.37-3.87-5.55-8.47-.04-8.84,6.59,8.05,.04,.75,2.3-2.13,2.03,8.98,.3,1.34,3.24-10.08-.48-.5-2.47-6.26-1.39-3.38-1.89-5.42,.06c1.47-1,2.92-2.03,4.45-2.92-42.14,24.39-58.66,71.24-58.66,71.24l8.36,5.38-.06,11.91Z"/></g><g><g><path d="M126.33,280.83c-.5,0-1-.04-1.46-.11-1.26-.21-2.36-.62-3.27-1.23-.91-.61-1.66-1.39-2.22-2.33-.55-.92-.92-1.93-1.11-3.01-.2-1.19-.18-2.44,.08-3.71,.26-1.27,.76-2.49,1.49-3.61,.74-1.12,1.72-2.11,2.92-2.93,1.2-.82,2.67-1.41,4.36-1.74,.57-.11,1.11-.16,1.63-.16,.78,0,1.51,.12,2.18,.36,.99,.35,1.85,.94,2.56,1.76l.14-.02,.26,.51c.1,.23,.16,.53,.17,.91,.01,.34-.01,.67-.07,.98-.07,.38-.2,.69-.38,.93-.2,.26-.48,.4-.79,.4-.24,0-.48-.09-.71-.27l-.04-.04-.04-.04c-.24-.26-.53-.54-.89-.84-.34-.29-.71-.55-1.1-.77-.39-.22-.81-.39-1.25-.51-.24-.07-.49-.1-.73-.1-.17,0-.33,.01-.5,.04-1.18,.17-2.18,.52-3.01,1.06-.83,.54-1.5,1.2-2,1.95-.5,.76-.84,1.59-1.03,2.48-.18,.88-.2,1.75-.06,2.57,.11,.66,.33,1.29,.66,1.88,.32,.56,.73,1.04,1.24,1.42,.51,.38,1.14,.66,1.86,.82,.37,.08,.77,.13,1.2,.13s.86-.04,1.32-.12l.42-.07c.12-.02,.23-.05,.34-.08,1.16-.27,2.3-.83,3.44-1.68,1.18-.88,2.41-1.97,3.63-3.24,1.22-1.27,2.47-2.71,3.73-4.29,.7-.88,1.4-1.78,2.11-2.69-1.1,.52-2.21,1.14-3.32,1.85l-.13,.09-.14,.02c-.12,.04-.25,.06-.39,.06-.18,0-.37-.03-.59-.1-.31-.09-.6-.21-.87-.36-.29-.16-.54-.33-.74-.53-.5-.48-.42-1.02-.19-1.34l.12-.18,.2-.08c1.5-.62,3.02-1.22,4.52-1.79,1.45-.55,2.94-1.04,4.45-1.47,.95-1.24,1.88-2.47,2.78-3.69,.95-1.29,1.85-2.52,2.69-3.72,.85-1.19,1.63-2.32,2.36-3.38,.72-1.06,1.37-2.01,1.93-2.86,.56-.84,1.02-1.57,1.39-2.16,.37-.6,.6-1.01,.73-1.27l.09-.19,.18-.12c.17-.11,.38-.17,.61-.17,.2,0,.43,.04,.69,.13,.36,.12,.71,.28,1.06,.48,.36,.2,.68,.42,.94,.65,.46,.41,.55,.78,.51,1.06,0,.03,.04,.21,.04,.21l-.03,.14c-.12,.59-.29,1.29-.54,2.13-.24,.82-.54,1.72-.87,2.69-.34,.97-.71,2-1.11,3.1-.4,1.1-.81,2.2-1.23,3.31-.67,1.76-1.32,3.52-1.96,5.29-.63,1.73-1.18,3.37-1.63,4.87-.44,1.46-.74,2.75-.9,3.81-.18,1.24,0,1.66,.09,1.79,.18,.26,.28,.32,.28,.32l1.76,1.06-1.23,.21c-.04,.15-.11,.29-.21,.41-.16,.2-.37,.35-.63,.44-.17,.06-.35,.1-.53,.1-.06,0-.13,0-.19-.01-.16,.01-.31,.02-.46,.02-.97,0-1.73-.28-2.27-.82-.58-.59-.94-1.32-1.09-2.19-.06-.38-.09-.78-.09-1.19,0-.39,.02-.78,.06-1.16,.03-.38,.08-.75,.14-1.1l.16-.91c.28-1.18,.61-2.33,1-3.48,.26-.77,.53-1.56,.83-2.37-.25,.04-.49,.08-.73,.12-.3,.05-.6,.11-.9,.17-.21,.04-.41,.08-.61,.13l-.89,1.13-1.17,1.56c-1.07,1.42-2.2,2.88-3.39,4.4-1.2,1.52-2.48,2.97-3.82,4.3-1.35,1.34-2.78,2.53-4.25,3.53-1.52,1.03-3.14,1.73-4.81,2.1-.98,.22-1.92,.33-2.78,.33Zm25.33-23.04c-.47,.67-.97,1.36-1.49,2.08-.15,.2-.29,.4-.44,.59,.1-.01,.76-.11,.98-.14,.36-.93,.74-1.86,1.13-2.79-.06,.09-.12,.17-.19,.26Z"/><path class="cls-1" d="M157.09,244.82c.12,0,.27,.03,.45,.09,.31,.11,.62,.25,.94,.42s.58,.36,.8,.56c.22,.2,.31,.35,.25,.45l-.12,.13c.1,.02,.15,.06,.16,.11-.11,.57-.29,1.26-.53,2.06-.24,.81-.53,1.7-.86,2.66-.34,.97-.71,2-1.11,3.09-.4,1.09-.81,2.19-1.22,3.31-.67,1.76-1.32,3.52-1.96,5.29-.64,1.77-1.19,3.4-1.64,4.91s-.76,2.81-.92,3.92c-.16,1.11-.09,1.88,.21,2.32,.2,.29,.38,.47,.55,.56h-.05c.14,.08,.22,.17,.23,.27,0,.1-.02,.2-.09,.29-.07,.09-.17,.16-.3,.21-.09,.03-.18,.05-.27,.05-.05,0-.11,0-.17-.02-.17,.02-.33,.02-.48,.02-.76,0-1.34-.2-1.73-.6-.47-.48-.77-1.08-.89-1.79-.06-.33-.08-.68-.08-1.05,0-.37,.02-.74,.05-1.1,.03-.37,.08-.71,.13-1.05,.06-.33,.11-.63,.16-.91,.27-1.11,.59-2.23,.97-3.38,.38-1.15,.8-2.32,1.26-3.51-.35,.04-.7,.09-1.03,.13-.33,.05-.65,.1-.97,.15-.31,.05-.62,.11-.92,.17-.3,.06-.6,.13-.89,.2l-1.05,1.34-1.18,1.57c-1.07,1.41-2.19,2.87-3.38,4.38-1.19,1.51-2.45,2.92-3.76,4.24-1.32,1.31-2.7,2.46-4.14,3.44-1.44,.97-2.96,1.64-4.55,1.98-.94,.21-1.81,.31-2.62,.31-.47,0-.91-.03-1.34-.1-1.16-.19-2.15-.56-2.97-1.11-.82-.55-1.49-1.25-1.99-2.09s-.84-1.76-1.01-2.75c-.19-1.1-.16-2.25,.08-3.44,.24-1.19,.71-2.3,1.39-3.35,.68-1.04,1.59-1.95,2.72-2.72,1.13-.77,2.49-1.31,4.08-1.62,.52-.1,1.01-.14,1.48-.14,.69,0,1.34,.1,1.93,.31,.99,.35,1.82,.97,2.5,1.86h.03c.06,.14,.1,.35,.11,.63s0,.56-.06,.82-.13,.47-.24,.61c-.06,.07-.12,.11-.19,.11s-.15-.03-.24-.1c-.26-.28-.57-.58-.95-.9s-.79-.61-1.23-.86c-.44-.25-.91-.44-1.42-.58-.31-.09-.62-.13-.94-.13-.21,0-.41,.02-.63,.05-1.28,.18-2.37,.57-3.29,1.17-.92,.6-1.66,1.33-2.21,2.17-.56,.84-.93,1.76-1.14,2.74-.2,.98-.22,1.93-.06,2.85,.13,.75,.38,1.46,.74,2.12,.37,.66,.85,1.21,1.45,1.66,.6,.45,1.31,.77,2.14,.96,.43,.1,.88,.15,1.37,.15,.46,0,.94-.04,1.45-.13,.15-.03,.29-.05,.43-.07,.14-.02,.28-.06,.42-.1,1.22-.29,2.44-.88,3.67-1.79,1.23-.91,2.47-2.02,3.72-3.32,1.25-1.3,2.51-2.75,3.77-4.34,1.26-1.59,2.53-3.22,3.79-4.9-1.99,.68-3.99,1.67-6,2.96h-.06c-.05,.03-.12,.05-.19,.05-.1,0-.23-.02-.38-.07-.26-.08-.5-.18-.73-.3-.23-.12-.42-.26-.56-.4-.15-.14-.19-.27-.11-.38,1.49-.61,2.98-1.21,4.5-1.78,1.51-.57,3.05-1.08,4.63-1.52,1.01-1.31,1.98-2.61,2.94-3.9,.95-1.29,1.85-2.53,2.7-3.73,.85-1.2,1.63-2.33,2.36-3.39,.73-1.06,1.37-2.02,1.94-2.87s1.03-1.58,1.4-2.19c.37-.6,.62-1.05,.76-1.34,.05-.03,.12-.05,.2-.05m-2.1,7.19c-.68,.89-1.35,1.78-2,2.67-.65,.89-1.3,1.78-1.94,2.66-.47,.67-.97,1.36-1.49,2.07-.52,.71-1.05,1.42-1.57,2.11,.16-.05,.33-.08,.49-.11s.34-.06,.52-.09c.39-.07,.76-.13,1.13-.18,.37-.05,.74-.1,1.11-.15,.45-1.15,.91-2.3,1.4-3.45,.48-1.14,.97-2.3,1.45-3.46l.89-2.08m2.1-8.69c-.37,0-.72,.1-1.02,.29l-.36,.23-.18,.38c-.11,.23-.34,.63-.69,1.2-.37,.6-.83,1.32-1.37,2.14-.56,.85-1.2,1.8-1.92,2.85-.72,1.06-1.5,2.18-2.35,3.37-.83,1.17-1.73,2.42-2.68,3.7-.86,1.16-1.74,2.32-2.62,3.48-1.45,.42-2.88,.89-4.27,1.42-1.5,.57-3.03,1.17-4.54,1.79l-.4,.17-.05,.07s-.03-.08-.05-.12l-.46-1.04-.34,.05c-.74-.76-1.61-1.32-2.6-1.67-.75-.27-1.56-.4-2.43-.4-.56,0-1.15,.06-1.76,.17-1.8,.35-3.37,.98-4.66,1.86-1.28,.88-2.33,1.93-3.12,3.14-.78,1.2-1.32,2.5-1.6,3.87-.28,1.37-.31,2.71-.09,3.99,.2,1.17,.6,2.27,1.2,3.27,.62,1.03,1.44,1.89,2.44,2.57,1,.67,2.2,1.12,3.57,1.34,.5,.08,1.03,.12,1.58,.12,.91,0,1.9-.12,2.94-.35,1.76-.38,3.46-1.13,5.06-2.21,1.51-1.03,2.98-2.24,4.36-3.62,1.36-1.36,2.67-2.83,3.88-4.37,1.17-1.49,2.32-2.97,3.4-4.41l1.18-1.57,.7-.9c.11-.02,.22-.05,.33-.07,.11-.02,.23-.04,.34-.07-.14,.4-.27,.79-.4,1.18-.39,1.16-.73,2.34-1.01,3.5v.04s-.02,.04-.02,.04c-.05,.28-.1,.58-.16,.92-.06,.38-.11,.77-.15,1.17-.04,.4-.06,.81-.06,1.22,0,.45,.03,.89,.1,1.31,.18,1.02,.61,1.89,1.3,2.59,.68,.69,1.62,1.05,2.8,1.05,.14,0,.29,0,.45-.02,.07,0,.13,0,.2,0,.28,0,.55-.05,.81-.15,.37-.14,.69-.36,.93-.66,.05-.07,.1-.13,.14-.2l3.34-.54-3.95-2.04s-.05-.07-.1-.13c0,0,0,0,0,0,0,0-.1-.32,.04-1.25,.15-1.03,.44-2.28,.87-3.7,.45-1.49,.99-3.12,1.62-4.83,.65-1.78,1.31-3.56,1.96-5.28,.42-1.12,.83-2.23,1.23-3.32,.4-1.1,.77-2.14,1.11-3.11,.35-1.01,.64-1.92,.89-2.73,.26-.87,.44-1.59,.56-2.2l.05-.28-.05-.28s0,0,0,0c.02-.44-.14-1-.77-1.56-.3-.26-.66-.52-1.07-.74-.38-.21-.78-.39-1.18-.53-.35-.12-.65-.18-.94-.18h0Zm-30.65,33.55c-.37,0-.72-.04-1.03-.11-.63-.14-1.14-.37-1.58-.7-.43-.32-.77-.71-1.04-1.19-.28-.51-.48-1.05-.57-1.63-.13-.75-.11-1.5,.05-2.3,.17-.8,.47-1.53,.92-2.21,.45-.67,1.03-1.24,1.79-1.74,.73-.48,1.63-.8,2.68-.94,.17-.03,.3-.04,.42-.04,.18,0,.36,.02,.53,.07,.39,.11,.75,.26,1.09,.44,.35,.2,.68,.43,.98,.69,.33,.28,.61,.55,.82,.78l.08,.08,.09,.07c.45,.36,.89,.43,1.17,.43,.54,0,1.04-.25,1.38-.69,.2-.26,.34-.56,.44-.92,.02,.02,.04,.04,.06,.06,.23,.23,.54,.46,.9,.65,.31,.17,.65,.3,1,.41,.3,.09,.56,.13,.81,.13,.19,0,.38-.03,.55-.08l.24-.04,.27-.17s.02-.01,.03-.02c-1.17,1.46-2.35,2.8-3.49,3.99-1.19,1.24-2.38,2.3-3.54,3.16-1.05,.78-2.1,1.3-3.12,1.54h-.04s-.04,.02-.04,.02c-.08,.02-.17,.05-.25,.06l-.28,.05-.15,.03c-.42,.07-.83,.11-1.2,.11h0Z"/></g><g><path d="M160,272.07c-.74,0-1.37-.21-1.87-.63-.62-.52-1-1.19-1.13-1.99-.09-.55-.08-1.1,0-1.65,.08-.49,.2-1,.35-1.51,.15-.5,.34-1.01,.57-1.51,.21-.47,.43-.94,.64-1.4,.06-.12,.1-.23,.16-.36,.08-.2,.16-.37,.25-.51,0,0,.51-1.09,.55-1.16-.18,.05-.38,.09-.61,.12-.23,.51-.45,1.03-.66,1.56-.26,.67-.5,1.3-.72,1.91-.2,.4-.5,.61-.88,.69-.15,.03-.3,.04-.45,.04-.08,0-.16,0-.25-.01-.28-.03-.54-.12-.75-.28-.39-.29-.5-.78-.29-1.24,0,0,.51-1.41,.61-1.68,.11-.3,.23-.63,.37-.98l.2-.52c-.21-.23-.34-.52-.41-.85-.06-.28-.06-.6,0-.97,.04-.31,.11-.64,.2-.97,.09-.32,.19-.64,.3-.97,.11-.33,.23-.64,.35-.95,.09-.23,.17-.45,.24-.69,.06-.23,.11-.47,.15-.71l.11-.78,.77,.15c.58,.11,1.15,.29,1.71,.52,.94,.4,1.25,1.05,1.34,1.53,.06,.29,.05,.65-.04,1.09l-.02,.08-.09,.21c.35-.24,.69-.48,1.02-.73,.32-.25,.61-.48,.87-.7,.28-.24,.34-.34,.35-.35l.17-.27,.34-.1c.08-.02,.17-.02,.27-.02,.14,0,.3,.02,.47,.06,.2,.05,.4,.1,.6,.17,.22,.07,.41,.14,.57,.22,.22,.1,.34,.17,.37,.19l.05,.03,.04,.04c.25,.23,.53,.66,.48,1.38-.03,.42-.14,.89-.35,1.43-.19,.49-.42,1.03-.71,1.6-.28,.56-.57,1.14-.87,1.73-.17,.35-.35,.71-.53,1.06-.18,.35-.35,.7-.53,1.05-.15,.27-.29,.56-.43,.89-.15,.34-.29,.68-.41,1.04-.12,.35-.22,.68-.28,1-.04,.22-.06,.41-.04,.57,.05-.03,.12-.08,.21-.14,.23-.18,.48-.43,.74-.74,.27-.33,.55-.71,.82-1.13,.27-.42,.51-.86,.72-1.32,.22-.53,.44-1.09,.65-1.67,.21-.58,.39-1.06,.52-1.44l.02-.05,.02-.05c.11-.21,.33-.49,.79-.61,.15-.04,.31-.06,.47-.06,.1,0,.2,0,.3,.02,.26,.04,.5,.13,.69,.26,.4,.27,.55,.73,.39,1.19-.09,.24-.17,.46-.25,.69-.08,.24-.17,.49-.26,.73-.09,.29-.21,.62-.32,.93-.12,.33-.25,.65-.39,.96-.28,.64-.63,1.32-1.04,2.01-.41,.71-.89,1.37-1.41,1.97-.54,.62-1.15,1.17-1.82,1.62-.71,.48-1.5,.79-2.35,.91-.23,.03-.45,.05-.66,.05Z"/><path class="cls-1" d="M157.65,254.95c.54,.1,1.05,.26,1.56,.47,.51,.21,.81,.54,.89,.98,.04,.2,.03,.47-.04,.81l-.88,2.03c-.03,.08-.02,.12,.03,.12,.03,0,.08-.01,.14-.04,.17-.07,.4-.2,.71-.38,.3-.18,.65-.4,1.03-.66,.38-.26,.73-.51,1.07-.77,.34-.26,.64-.5,.91-.74,.27-.23,.44-.41,.51-.54,.04,0,.08-.01,.13-.01,.09,0,.19,.01,.31,.04,.18,.04,.36,.09,.54,.15,.18,.06,.35,.12,.49,.19,.15,.07,.23,.11,.25,.12,.19,.17,.27,.43,.24,.78-.03,.35-.13,.75-.3,1.22-.18,.46-.4,.98-.68,1.53-.28,.56-.57,1.14-.87,1.73-.18,.36-.36,.71-.53,1.06s-.36,.7-.53,1.06c-.14,.25-.29,.56-.45,.92s-.3,.72-.44,1.1c-.13,.38-.24,.75-.31,1.1-.07,.36-.08,.67-.03,.95,.08,.41,.27,.62,.56,.62,.03,0,.07,0,.1,0,.2-.04,.44-.17,.72-.39,.28-.22,.57-.5,.86-.86,.29-.35,.58-.75,.88-1.2s.55-.92,.77-1.42c.23-.56,.46-1.13,.67-1.72,.22-.59,.39-1.07,.52-1.46,.05-.11,.16-.18,.31-.22,.09-.02,.19-.04,.29-.04,.06,0,.12,0,.18,.01,.16,.03,.29,.08,.4,.15,.11,.07,.14,.18,.09,.32-.09,.23-.17,.46-.25,.69-.08,.24-.16,.46-.25,.69-.11,.33-.21,.64-.32,.95-.11,.31-.23,.61-.36,.9-.28,.62-.61,1.27-1,1.94s-.83,1.29-1.33,1.86c-.5,.57-1.05,1.07-1.67,1.49-.62,.42-1.3,.68-2.04,.79-.19,.03-.37,.04-.55,.04-.56,0-1.02-.15-1.39-.46-.48-.4-.77-.91-.88-1.54-.07-.46-.07-.93,0-1.4,.08-.47,.19-.95,.33-1.42s.32-.95,.53-1.42c.21-.47,.42-.94,.64-1.4,.05-.11,.11-.24,.18-.41,.06-.16,.13-.3,.21-.41l.46-.98c.24-.52,.46-.98,.67-1.38,.21-.39,.35-.62,.43-.7-.21,.08-.4,.16-.57,.23-.17,.07-.33,.15-.48,.24-.19,.09-.39,.18-.59,.26-.2,.08-.48,.14-.83,.19l-.33,.06c-.29,.63-.57,1.28-.84,1.95-.27,.67-.51,1.31-.73,1.93-.05,.11-.16,.17-.32,.21-.1,.02-.2,.03-.31,.03-.05,0-.11,0-.16,0-.16-.02-.28-.06-.38-.14-.1-.08-.12-.19-.05-.33,.1-.27,.2-.55,.31-.86,.11-.31,.21-.59,.31-.86,.11-.31,.23-.63,.36-.97s.27-.69,.41-1.04c-.31-.15-.51-.39-.57-.74-.04-.2-.04-.44,0-.73s.1-.58,.18-.88c.08-.3,.18-.61,.29-.93,.11-.32,.22-.62,.33-.91,.1-.25,.19-.5,.26-.77,.07-.26,.13-.53,.17-.8m-1.26-1.77l-.22,1.56c-.03,.2-.07,.41-.13,.62-.05,.2-.12,.39-.2,.6-.13,.32-.25,.65-.36,.99-.12,.35-.22,.69-.31,1.02-.1,.37-.17,.73-.22,1.07-.06,.46-.06,.86,.02,1.23,.06,.29,.16,.55,.29,.79-.02,.05-.04,.09-.06,.14-.14,.36-.26,.69-.38,1.01-.09,.25-.2,.55-.31,.86l-.05,.14c-.08,.23-.17,.46-.24,.67-.32,.77-.1,1.6,.54,2.09,.33,.24,.71,.39,1.13,.43,.1,.01,.21,.02,.32,.02,.12,0,.23,0,.35-.02-.12,.44-.21,.87-.28,1.29-.1,.62-.11,1.25,0,1.87,.17,1,.64,1.82,1.39,2.46,.65,.54,1.44,.81,2.35,.81,.25,0,.51-.02,.77-.06,.96-.14,1.85-.49,2.65-1.03,.73-.49,1.39-1.08,1.97-1.75,.55-.64,1.05-1.34,1.49-2.08,.42-.71,.78-1.42,1.08-2.09,.14-.31,.28-.65,.4-.99,.11-.32,.22-.63,.33-.96,.09-.24,.18-.48,.26-.73,.07-.2,.14-.41,.22-.61v-.03s.02-.03,.02-.03c.27-.78,0-1.61-.68-2.06-.3-.19-.62-.32-.99-.38-.15-.02-.29-.04-.43-.04-.22,0-.45,.03-.67,.09-.05,.01-.1,.03-.14,.04,.13-.3,.25-.59,.36-.86,.23-.61,.36-1.15,.39-1.64,.08-1.08-.42-1.71-.72-1.99l-.08-.08-.09-.06c-.12-.08-.23-.13-.47-.25-.21-.09-.42-.17-.65-.25-.24-.08-.46-.14-.68-.19-.24-.05-.44-.08-.64-.08-.14,0-.28,.01-.42,.04l-.69,.14-.3,.55s-.09,.1-.21,.2c-.16,.14-.33,.28-.52,.43-.19-.9-.82-1.63-1.77-2.03-.61-.25-1.24-.44-1.86-.56l-1.55-.3h0Z"/></g><g><path d="M170.82,269.79c-.86,0-1.69-.19-2.48-.58-1.15-.56-2.06-1.5-2.7-2.81-.21-.45-.35-.88-.44-1.3-.23-1.11-.2-2.32,.11-3.61,.3-1.26,.81-2.47,1.52-3.59,.71-1.12,1.58-2.1,2.6-2.91,1.06-.84,2.25-1.35,3.53-1.51,.2-.02,.35-.02,.51-.02,.37,0,.71,.04,1.03,.12,.46,.12,.86,.31,1.19,.56,.34,.25,.62,.56,.83,.91,.15,.24,.27,.5,.38,.76,.46,.39,.82,.95,1.07,1.66,.05,.14,.09,.28,.14,.42,.04,.15,.08,.31,.12,.47,.16,.73,.21,1.51,.16,2.31-.05,.79-.19,1.58-.41,2.36-.22,.77-.52,1.53-.9,2.25-.38,.72-.82,1.39-1.32,1.98-.51,.61-1.08,1.13-1.69,1.54-.64,.43-1.33,.72-2.06,.88-.4,.08-.79,.12-1.18,.12Zm.61-11.73c-.3,.46-.55,.97-.76,1.53-.21,.57-.37,1.15-.48,1.73-.11,.58-.17,1.17-.18,1.74-.01,.56,.03,1.07,.13,1.52,.13,.63,.36,1.14,.69,1.51,.19,.22,.41,.31,.72,.31,.08,0,.16,0,.25-.02,.5-.08,.95-.37,1.38-.9,.49-.6,.91-1.33,1.23-2.17,.33-.85,.55-1.76,.67-2.68,.08-.65,.09-1.24,.03-1.77-.09,.16-.18,.33-.24,.51-.07,.18-.07,.28-.06,.31l.07,.67-1.21,.26h-.12c-.23-.04-.55-.14-.83-.51-.14-.19-.25-.4-.34-.64-.08-.22-.14-.43-.19-.65l-.11-.5c-.04-.39,.05-.71,.25-1.04,.13-.22,.29-.44,.47-.63,.04-.04,.08-.08,.11-.12-.12,.08-.26,.18-.41,.31-.3,.25-.58,.54-.83,.88l-.23,.35Z"/><path class="cls-1" d="M173.46,254.22c.3,0,.58,.03,.84,.1,.36,.09,.68,.24,.94,.43s.47,.43,.63,.7c.16,.27,.29,.55,.39,.83,.43,.31,.76,.79,.99,1.45,.04,.12,.09,.25,.12,.38,.04,.13,.07,.26,.1,.41,.14,.68,.19,1.38,.15,2.12s-.17,1.47-.38,2.2c-.21,.73-.49,1.43-.84,2.11s-.76,1.29-1.23,1.85c-.46,.55-.98,1.02-1.54,1.4-.56,.38-1.16,.63-1.8,.77-.35,.07-.69,.1-1.02,.1-.75,0-1.46-.17-2.15-.5-1-.49-1.78-1.31-2.35-2.46-.18-.38-.3-.76-.38-1.12-.21-1-.18-2.1,.11-3.29,.28-1.18,.76-2.31,1.42-3.36,.66-1.06,1.47-1.96,2.43-2.72,.96-.76,2.01-1.21,3.16-1.36,.14-.01,.28-.02,.41-.02m-2.69,3.45h.03c-.33,.5-.61,1.06-.83,1.67-.22,.61-.39,1.23-.51,1.85-.12,.62-.18,1.25-.19,1.86-.01,.61,.03,1.18,.14,1.69,.16,.77,.45,1.38,.86,1.85,.34,.38,.76,.57,1.28,.57,.12,0,.24,0,.37-.03,.68-.11,1.3-.49,1.84-1.16,.55-.67,.99-1.46,1.35-2.37,.35-.91,.59-1.87,.71-2.85,.12-.99,.1-1.87-.08-2.63-.08-.37-.16-.58-.25-.63-.16,.04-.33,.14-.5,.32-.17,.18-.33,.39-.47,.62-.14,.23-.26,.47-.35,.72-.09,.25-.12,.47-.11,.65l-.44,.09c-.12-.01-.22-.08-.32-.21-.09-.12-.17-.27-.24-.45-.06-.18-.12-.36-.16-.54-.04-.18-.07-.35-.1-.49-.01-.15,.04-.32,.15-.5,.11-.19,.24-.36,.39-.53,.15-.16,.3-.32,.45-.45s.25-.23,.3-.28c.14-.12,.29-.21,.43-.26-.07-.25-.2-.45-.38-.61-.1-.08-.24-.12-.41-.12-.14,0-.3,.03-.49,.09-.36,.11-.77,.36-1.23,.75s-.88,.85-1.23,1.41m2.69-4.95c-.17,0-.36,0-.54,.02h-.03s-.03,0-.03,0c-1.42,.18-2.73,.74-3.9,1.67-1.09,.86-2.02,1.9-2.77,3.09-.75,1.19-1.29,2.47-1.61,3.81-.33,1.4-.37,2.73-.11,3.95,.1,.47,.26,.95,.48,1.44,.74,1.5,1.76,2.56,3.06,3.19,.89,.43,1.84,.65,2.81,.65,.43,0,.87-.04,1.31-.13,.84-.18,1.63-.51,2.35-.99,.67-.45,1.29-1.02,1.85-1.68,.53-.64,1-1.35,1.41-2.12,.4-.77,.72-1.57,.96-2.4,.24-.83,.38-1.67,.43-2.51,.05-.87,0-1.72-.18-2.52-.03-.17-.08-.34-.12-.5-.05-.17-.1-.33-.16-.48-.27-.76-.66-1.38-1.15-1.84-.11-.24-.23-.48-.37-.71-.26-.43-.6-.81-1.02-1.12-.41-.31-.9-.54-1.45-.68-.37-.1-.78-.15-1.21-.15h0Zm-1.92,12.94c-.09,0-.11-.01-.16-.07-.24-.27-.41-.66-.51-1.16-.09-.4-.12-.85-.11-1.35,.01-.53,.07-1.07,.17-1.62,.1-.54,.25-1.08,.44-1.61,.05-.15,.11-.29,.17-.43,.03,.1,.06,.2,.1,.3,.12,.32,.27,.6,.45,.83,.35,.46,.83,.74,1.36,.8l.24,.03,.23-.05,.28-.06c-.12,.61-.29,1.2-.51,1.78-.29,.76-.66,1.42-1.11,1.96-.46,.56-.8,.61-.91,.63-.05,0-.09,.01-.14,.01h0Z"/></g><g><path d="M181,267.76c-.67,0-1.26-.21-1.75-.61-.59-.49-.99-1.17-1.18-2.03-.1-.42-.15-.85-.16-1.27,0-.37,.01-.79,.04-1.28,.03-.48,.07-1.01,.13-1.57,.06-.55,.12-1.12,.19-1.72,.07-.6,.14-1.18,.23-1.76,.1-.81,.19-1.62,.28-2.41,.08-.76,.14-1.52,.17-2.24l.02-.57,.61-.14c.27-.16,.59-.24,.96-.24,.09,0,.18,0,.28,.01,.45,.04,.91,.16,1.34,.34,.46,.19,.86,.46,1.21,.81,.55,.55,.61,1.14,.56,1.53l-.38,1.87c-.13,.61-.27,1.28-.42,2.02-.15,.74-.27,1.48-.38,2.21-.11,.75-.18,1.41-.22,2.03-.03,.5-.02,.84,0,1.08,.17-.16,.33-.35,.48-.56,.34-.46,.65-.97,.92-1.52,.29-.57,.55-1.17,.79-1.79,.21-.56,.41-1.11,.58-1.63v-.08c.04-.19,.1-.37,.19-.53,.01-.02,.03-.05,.04-.09,0,0,.16-1.3,.19-1.58,.11-.85,.21-1.68,.3-2.51,.09-.79,.14-1.57,.17-2.3l.02-.57,.61-.14c.26-.16,.58-.24,.96-.24,.09,0,.19,0,.29,.02,.45,.04,.91,.16,1.35,.34,.47,.19,.89,.46,1.23,.81,.55,.55,.61,1.13,.56,1.53-.03,.19-.07,.42-.13,.73l-.22,1c-.13,.6-.27,1.28-.42,2.04-.15,.76-.28,1.51-.4,2.26-.11,.73-.19,1.43-.25,2.07-.04,.46-.03,.85,0,1.15,.18-.17,.35-.37,.51-.59,.35-.48,.67-1.02,.96-1.59,.29-.58,.56-1.2,.79-1.84,.24-.66,.45-1.28,.64-1.87l.25-.8c.14-.39,.4-.67,.76-.83,.25-.11,.51-.17,.76-.17h.1c.36,.03,.67,.17,.91,.43,.17,.18,.42,.58,.21,1.22l-.42,1.2c-.37,1.06-.78,2.15-1.23,3.24-.47,1.14-1.08,2.23-1.82,3.24-.11,.16-.26,.34-.45,.55-.19,.22-.44,.45-.72,.66-.27,.2-.58,.39-.93,.57-.37,.18-.77,.33-1.19,.42-.26,.05-.48,.07-.68,.07-.68,0-1.28-.21-1.76-.62-.34-.29-.62-.64-.83-1.06-.23,.38-.48,.75-.75,1.09-.1,.14-.25,.32-.43,.52-.2,.23-.44,.45-.72,.66-.27,.2-.58,.39-.93,.57-.37,.18-.76,.32-1.19,.42-.26,.05-.47,.06-.67,.06Z"/><path class="cls-1" d="M187.81,251.03c.07,0,.14,0,.21,.01,.38,.04,.76,.13,1.14,.29s.71,.37,.98,.64c.27,.27,.39,.58,.35,.91-.02,.16-.06,.38-.12,.66-.06,.28-.13,.61-.22,1-.13,.6-.27,1.29-.43,2.06-.15,.77-.29,1.53-.4,2.29-.12,.75-.2,1.46-.25,2.12-.05,.66-.03,1.19,.06,1.59,.1,.47,.21,.7,.31,.7,0,0,.01,0,.02,0l.24-.06c.46-.28,.87-.67,1.24-1.18,.37-.51,.71-1.08,1.02-1.7,.31-.61,.59-1.26,.83-1.92s.46-1.3,.65-1.9l.25-.8c.06-.17,.18-.29,.35-.37,.15-.07,.3-.1,.45-.1,.02,0,.04,0,.06,0,.16,.01,.3,.07,.4,.18,.1,.11,.12,.27,.05,.48l-.42,1.19c-.36,1.04-.76,2.11-1.21,3.2-.45,1.1-1.03,2.12-1.73,3.09-.1,.14-.24,.3-.4,.49-.17,.19-.37,.38-.61,.55-.24,.18-.51,.34-.82,.5-.31,.16-.65,.28-1.01,.36-.18,.03-.35,.05-.52,.05-.5,0-.93-.15-1.28-.44-.46-.39-.77-.94-.93-1.63-.07-.31-.11-.63-.13-.95-.23,.49-.48,.97-.74,1.43-.26,.46-.54,.89-.86,1.29-.1,.14-.24,.3-.41,.49-.17,.19-.37,.38-.61,.55-.24,.18-.51,.34-.82,.5-.31,.16-.65,.27-1.01,.36-.18,.03-.34,.05-.5,.05-.5,0-.92-.15-1.26-.44-.46-.38-.77-.92-.92-1.61-.09-.38-.13-.75-.14-1.12,0-.34,.01-.75,.04-1.23,.03-.47,.07-.99,.12-1.54,.06-.55,.12-1.12,.19-1.71,.07-.59,.14-1.17,.22-1.74,.1-.83,.2-1.64,.28-2.43,.09-.79,.14-1.56,.17-2.29l.19-.04c.16-.13,.37-.19,.65-.19,.07,0,.14,0,.21,.01,.38,.04,.76,.14,1.13,.29,.37,.16,.69,.37,.96,.64,.27,.27,.39,.58,.35,.91l-.37,1.81c-.13,.6-.27,1.28-.42,2.03-.15,.75-.28,1.5-.38,2.24s-.19,1.44-.23,2.09c-.04,.65-.02,1.17,.06,1.55,.11,.47,.21,.7,.31,.7,0,0,.01,0,.02,0l.22-.05c.45-.29,.86-.69,1.23-1.18,.37-.49,.7-1.04,.99-1.63,.3-.59,.57-1.21,.81-1.86,.25-.65,.46-1.27,.65-1.87h-.03c.02-.09,.05-.19,.1-.27,.04-.09,.09-.18,.12-.29,.03-.28,.07-.55,.1-.83,.03-.27,.06-.55,.1-.83,.11-.85,.21-1.69,.3-2.52s.15-1.62,.17-2.35l.19-.04c.15-.13,.37-.19,.65-.19m0-1.5c-.52,0-.93,.13-1.23,.29l-1.07,.25-.04,1.15c-.03,.71-.08,1.47-.17,2.24-.09,.82-.19,1.65-.3,2.48-.04,.29-.07,.57-.1,.86-.03,.2-.05,.4-.08,.61-.12,.22-.19,.46-.23,.72v.03c-.17,.5-.35,1.02-.55,1.53-.17,.45-.35,.89-.55,1.31,0-.06,.02-.12,.03-.18,.11-.74,.23-1.47,.37-2.17,.14-.74,.28-1.41,.41-2l.37-1.83v-.06s.02-.06,.02-.06c.09-.79-.18-1.55-.77-2.14-.41-.41-.9-.74-1.45-.97-.51-.21-1.03-.35-1.56-.4-.13-.01-.25-.02-.36-.02-.47,0-.88,.1-1.24,.29l-1.06,.24-.04,1.15c-.03,.7-.08,1.44-.16,2.18-.09,.79-.18,1.6-.28,2.42-.08,.55-.15,1.15-.22,1.75-.07,.59-.13,1.17-.19,1.72-.06,.61-.11,1.14-.13,1.61-.03,.52-.04,.95-.04,1.32,0,.49,.07,.97,.18,1.44,.22,1.01,.71,1.83,1.43,2.43,.61,.51,1.38,.78,2.22,.78,.24,0,.5-.02,.76-.07h.04s.04-.02,.04-.02c.48-.11,.94-.27,1.35-.48,.4-.2,.74-.41,1.05-.64,.32-.24,.6-.5,.83-.76,.2-.23,.36-.42,.48-.58,.05-.07,.1-.14,.16-.21,.1,.11,.21,.21,.32,.3,.62,.53,1.4,.8,2.25,.8,.25,0,.51-.02,.78-.07h.04s.04-.01,.04-.01c.48-.11,.94-.27,1.36-.48,.4-.2,.74-.41,1.05-.64,.33-.24,.61-.5,.84-.77,.19-.22,.35-.41,.48-.59,.78-1.06,1.42-2.21,1.91-3.41,.45-1.1,.87-2.21,1.24-3.28l.42-1.18c.25-.76,.12-1.48-.36-1.99-.36-.39-.86-.63-1.41-.66-.06,0-.11,0-.15,0-.36,0-.71,.08-1.06,.23-.56,.25-.96,.69-1.16,1.24v.03s-.02,.03-.02,.03l-.25,.8c-.19,.59-.4,1.21-.63,1.83-.19,.52-.4,1.03-.63,1.5,.02-.11,.03-.21,.05-.32,.11-.71,.24-1.46,.39-2.23,.15-.76,.29-1.43,.42-2.03,.05-.23,.1-.44,.14-.64l.08-.35c.07-.34,.12-.6,.15-.78,.1-.82-.18-1.58-.78-2.17-.41-.41-.9-.74-1.47-.97-.51-.21-1.04-.34-1.56-.39-.12-.01-.24-.02-.36-.02h0Z"/></g><g><path d="M195.63,264.42c-.25,0-.51-.03-.79-.08-.4-.07-.78-.19-1.15-.34-.53-.22-.85-.52-.99-.91l-.02-.06v-.06c-.28-1.44-.35-2.93-.22-4.43,.13-1.5,.29-2.99,.46-4.41,.1-.71,.19-1.41,.28-2.14,.08-.71,.13-1.49,.16-2.31v-.34s.27-.22,.27-.22c.33-.27,.76-.41,1.33-.41,.55,.01,1.03,.1,1.49,.25,.49,.17,.92,.41,1.29,.73,.02,.02,.04,.03,.06,.05,.34-.43,.71-.83,1.1-1.2,.73-.71,1.58-1.21,2.51-1.5,.18-.04,.33-.06,.47-.06,.23,0,.48,.04,.74,.12,.36,.11,.7,.28,1.02,.5,.33,.22,.61,.47,.83,.76,.29,.37,.43,.75,.42,1.14-.12,.99-.24,1.86-.38,2.69-.14,.82-.27,1.52-.38,2.1-.08,.51-.17,.99-.24,1.43-.08,.43-.13,.84-.17,1.24-.04,.38-.05,.78-.03,1.18,0,.17,.02,.34,.04,.52,.23-.27,.48-.6,.75-.99,.52-.74,1-1.72,1.44-2.92,.22-.58,.42-1.16,.59-1.75l.25-.86c.07-.22,.25-.57,.78-.73,.18-.05,.36-.08,.55-.08,.08,0,.15,0,.23,.01,.27,.03,.51,.11,.71,.24,.4,.24,.57,.7,.43,1.17l-.85,2.72c-.17,.49-.4,1.09-.7,1.8-.31,.73-.68,1.45-1.11,2.16-.44,.71-.94,1.37-1.49,1.95-.61,.64-1.31,1.06-2.06,1.24-.33,.08-.65,.12-.98,.12-.11,0-.23,0-.34-.01-.45-.04-.87-.16-1.26-.36-.41-.21-.77-.52-1.06-.92-.29-.4-.5-.89-.62-1.48-.1-.5-.15-1.02-.15-1.55s.03-1.06,.09-1.64c.06-.57,.14-1.2,.23-1.89,.1-.68,.22-1.45,.36-2.29,.02-.14,.04-.27,.05-.4-.46,.67-.88,1.33-1.25,1.99-.37,.66-.74,1.38-1.11,2.15-.2,1.11-.32,2.25-.38,3.38-.05,1.15,.01,2.32,.2,3.48,.04,.29-.03,.54-.19,.74-.19,.24-.48,.38-.86,.42-.12,.01-.24,.02-.36,.02Z"/><path class="cls-1" d="M201.87,247.77c.16,0,.33,.03,.52,.09,.29,.09,.57,.23,.83,.4s.48,.38,.66,.6,.27,.45,.26,.66c-.11,.91-.23,1.77-.37,2.58-.14,.81-.27,1.51-.38,2.09-.09,.52-.17,1-.24,1.44-.08,.44-.13,.87-.18,1.3-.04,.42-.05,.85-.04,1.29s.07,.91,.16,1.43c0,.09,.05,.18,.13,.26,.04,.03,.08,.05,.14,.05,.07,0,.16-.03,.27-.09,.42-.35,.9-.92,1.46-1.72s1.07-1.83,1.53-3.09c.22-.59,.43-1.19,.61-1.79l.25-.87c.03-.1,.12-.18,.28-.23,.11-.03,.22-.05,.33-.05,.05,0,.09,0,.14,0,.16,.02,.29,.06,.41,.13,.11,.07,.15,.18,.11,.32l-.85,2.71c-.16,.46-.38,1.04-.68,1.73-.29,.7-.65,1.38-1.06,2.06-.41,.68-.88,1.28-1.39,1.82s-1.08,.88-1.7,1.03c-.27,.07-.54,.1-.8,.1-.09,0-.18,0-.27-.01-.35-.03-.68-.12-.99-.28-.31-.16-.57-.39-.8-.7-.23-.31-.39-.7-.49-1.18-.09-.46-.14-.93-.14-1.41s.03-1,.08-1.56c.06-.56,.13-1.18,.23-1.86,.1-.67,.22-1.43,.36-2.27,.06-.4,.1-.77,.12-1.11,.02-.34,0-.64-.06-.89-.03-.11-.08-.16-.17-.16-.06,0-.13,.02-.21,.07-.21,.12-.52,.48-.94,1.08-.5,.72-.94,1.42-1.33,2.12-.39,.7-.78,1.46-1.18,2.29-.21,1.18-.35,2.38-.4,3.58-.06,1.2,.01,2.41,.21,3.63,.02,.17-.11,.27-.39,.29-.09,0-.19,.01-.28,.01-.2,0-.42-.02-.65-.06-.34-.06-.67-.16-.99-.29-.32-.13-.51-.29-.57-.47-.25-1.38-.32-2.79-.2-4.23,.12-1.44,.28-2.9,.46-4.39,.1-.7,.19-1.41,.28-2.14,.08-.73,.14-1.52,.16-2.37,.19-.16,.47-.23,.85-.23,.02,0,.03,0,.05,0,.41,0,.81,.08,1.2,.21,.4,.13,.74,.33,1.04,.59,.29,.26,.42,.55,.39,.89h.03s0,.05,0,.08h0s0,0,0,0c.52-.79,1.1-1.5,1.76-2.13,.65-.63,1.39-1.07,2.21-1.33,.08-.02,.16-.03,.25-.03m0-1.5c-.2,0-.4,.02-.59,.07h-.05s-.05,.03-.05,.03c-1.04,.32-1.99,.89-2.81,1.68-.24,.23-.47,.46-.69,.71-.3-.19-.64-.35-.99-.47-.54-.18-1.09-.28-1.65-.29h-.02s-.07,0-.07,0c-.74,0-1.35,.2-1.81,.58l-.52,.43-.02,.67c-.02,.8-.08,1.55-.15,2.25-.08,.71-.17,1.41-.27,2.09-.18,1.47-.34,2.96-.47,4.47-.13,1.57-.06,3.12,.22,4.63l.02,.12,.04,.11c.21,.59,.68,1.04,1.4,1.35,.42,.18,.86,.31,1.31,.39,.32,.06,.63,.09,.92,.09,.15,0,.3,0,.44-.02,.74-.08,1.15-.42,1.37-.7,.29-.36,.41-.82,.35-1.28-.19-1.16-.25-2.28-.2-3.37,.05-1.07,.17-2.14,.35-3.19,.11-.23,.22-.45,.33-.67-.03,.27-.06,.54-.09,.8-.06,.61-.09,1.18-.09,1.72,0,.58,.06,1.15,.17,1.7,.14,.69,.39,1.29,.75,1.78,.36,.49,.81,.88,1.32,1.14,.48,.25,1,.39,1.55,.44,.13,.01,.27,.02,.4,.02,.38,0,.77-.05,1.15-.14,.9-.22,1.71-.7,2.43-1.45,.59-.61,1.12-1.31,1.59-2.08,.45-.73,.84-1.49,1.16-2.25,.3-.72,.54-1.33,.71-1.83l.86-2.75c.24-.81-.06-1.62-.75-2.05-.29-.18-.63-.3-1.01-.34-.11-.01-.22-.02-.32-.02-.26,0-.51,.04-.76,.11-.63,.19-1.09,.63-1.27,1.21l-.26,.9c-.17,.55-.36,1.12-.57,1.67-.2,.53-.4,1.02-.61,1.46,0-.03,.01-.06,.02-.09,.08-.45,.16-.93,.25-1.46,.1-.56,.23-1.26,.37-2.08,.15-.85,.27-1.74,.38-2.66v-.07s.01-.07,.01-.07c.01-.4-.08-1-.59-1.63-.28-.35-.61-.65-1-.91-.38-.25-.79-.45-1.21-.59-.33-.11-.66-.16-.97-.16h0Z"/></g><g><path d="M210.27,260.67c-.4,0-.77-.05-1.12-.14-.61-.17-1.13-.42-1.54-.75-.41-.33-.74-.71-1-1.15-.24-.42-.42-.85-.53-1.27-.04-.16-.07-.32-.11-.48-.03-.18-.05-.33-.07-.46-.08-.65-.07-1.4,.05-2.21,.11-.8,.3-1.62,.56-2.45,.26-.83,.61-1.67,1.03-2.49,.43-.83,.94-1.61,1.51-2.31,.58-.71,1.23-1.34,1.93-1.86,.73-.54,1.54-.93,2.41-1.15,.55-.14,1.09-.21,1.61-.21,.38,.01,.73,.08,1.05,.19l.35-1.46c.17-.68,.32-1.36,.46-2.05,.13-.7,.25-1.38,.34-2.05,.09-.66,.16-1.29,.21-1.88,.05-.58,.07-1.12,.08-1.6v-.33s.26-.22,.26-.22c.33-.28,.78-.43,1.36-.44h0c.5,0,.97,.08,1.42,.22,.49,.16,.93,.4,1.3,.71,.61,.53,.7,1.12,.66,1.52-.02,.23-.08,.62-.18,1.15-.09,.51-.21,1.09-.34,1.74-.14,.65-.29,1.33-.45,2.05-.17,.72-.32,1.39-.47,2.01l-.08,.35-.25,1.16c-.31,1.27-.6,2.53-.87,3.79-.18,.85-.34,1.68-.46,2.49h0s-.13,1.13-.13,1.13c-.08,.56-.13,1.13-.15,1.68-.02,.45,0,.85,.07,1.17,.17-.17,.34-.37,.49-.6,.33-.48,.62-1.01,.89-1.59,.27-.6,.52-1.23,.73-1.87,.22-.67,.43-1.31,.62-1.91,.06-.16,.1-.27,.12-.38l.11-.43c.07-.22,.25-.58,.79-.75,.2-.06,.4-.09,.61-.09,.06,0,.12,0,.18,0,.28,.02,.53,.1,.74,.23,.41,.25,.58,.69,.45,1.16-.08,.23-.14,.41-.19,.59l-.18,.62c-.33,1.09-.72,2.21-1.15,3.31-.45,1.15-1.05,2.26-1.77,3.29-.11,.16-.25,.34-.43,.55-.18,.22-.4,.45-.65,.67-.26,.23-.57,.43-.91,.62-.37,.2-.78,.35-1.23,.44-.33,.06-.63,.08-.9,.08-.71,0-1.33-.18-1.82-.53-.33-.24-.61-.52-.83-.85-.01,.02-.03,.04-.04,.06-.3,.45-.64,.87-.99,1.24-.36,.39-.74,.73-1.14,1.01-.43,.31-.9,.53-1.38,.65-.4,.07-.72,.1-1.03,.1Zm4.4-14.15s-.1,0-.15,.01c-.32,.07-.63,.23-.92,.49-.33,.3-.65,.66-.93,1.09-.29,.45-.55,.94-.76,1.47-.22,.55-.41,1.12-.57,1.7-.15,.57-.27,1.15-.35,1.71-.08,.56-.12,1.07-.13,1.52,0,.2,0,.45,.03,.73,.02,.26,.06,.51,.12,.75,.05,.2,.12,.39,.2,.57,.05,.11,.11,.19,.19,.25,.05,.04,.09,.05,.16,.06h0s.15,0,.4-.13c.04-.02,.21-.12,.53-.57,.28-.39,.54-.85,.8-1.37,.27-.54,.52-1.09,.76-1.66,.23-.55,.4-1,.53-1.39l.1-.99c.08-.65,.17-1.28,.29-1.91,.1-.55,.21-1.1,.34-1.66-.1-.2-.23-.39-.39-.57-.05-.06-.11-.09-.24-.09Z"/><path class="cls-1" d="M219.17,234.61c.38,0,.76,.06,1.15,.19,.4,.13,.75,.32,1.04,.57,.29,.25,.43,.55,.4,.88-.02,.22-.08,.58-.17,1.08s-.21,1.08-.34,1.72c-.13,.64-.29,1.32-.45,2.04-.16,.72-.32,1.38-.47,2l-.37,1.51h.03c-.31,1.27-.6,2.54-.88,3.8-.27,1.27-.48,2.49-.62,3.69h.03c-.08,.57-.13,1.16-.16,1.75s.02,1.1,.13,1.51c.12,.47,.24,.73,.37,.77l.24-.06c.45-.29,.85-.69,1.2-1.2,.35-.51,.67-1.08,.95-1.7,.28-.62,.54-1.27,.76-1.94s.43-1.31,.62-1.92c.06-.15,.1-.29,.14-.43,.03-.13,.07-.27,.11-.42,.03-.1,.13-.18,.29-.23,.13-.04,.25-.06,.38-.06,.04,0,.08,0,.11,0,.17,.01,.31,.06,.42,.12,.11,.07,.15,.17,.11,.32-.07,.19-.13,.38-.18,.58-.06,.2-.12,.4-.18,.61-.32,1.07-.7,2.15-1.13,3.25-.43,1.1-.99,2.15-1.68,3.13-.1,.14-.23,.31-.39,.5-.16,.2-.35,.39-.57,.58-.22,.19-.48,.37-.78,.53-.3,.16-.64,.28-1.02,.36-.27,.05-.52,.07-.75,.07-.56,0-1.02-.13-1.38-.39-.52-.37-.86-.88-1.03-1.53l-.1-.38c-.25,.45-.52,.88-.81,1.31-.29,.42-.59,.81-.92,1.16s-.67,.66-1.02,.91c-.36,.26-.74,.43-1.13,.54-.3,.05-.58,.08-.84,.08-.33,0-.64-.04-.92-.12-.51-.14-.93-.34-1.27-.62-.34-.27-.61-.58-.82-.95-.21-.36-.36-.72-.45-1.08-.04-.14-.07-.29-.1-.44-.03-.15-.04-.28-.06-.39-.07-.6-.06-1.27,.04-2.03,.1-.76,.28-1.54,.53-2.33,.25-.8,.58-1.59,.98-2.38,.41-.79,.88-1.51,1.42-2.18,.54-.67,1.14-1.25,1.79-1.73,.66-.49,1.37-.83,2.15-1.03,.49-.12,.96-.19,1.43-.19,.6,.02,1.12,.22,1.54,.59l.2-.8,.39-1.63c.17-.68,.33-1.37,.46-2.08,.14-.71,.25-1.4,.35-2.08s.17-1.32,.22-1.92,.08-1.15,.08-1.65c.19-.17,.48-.25,.88-.25,.01,0,.03,0,.04,0m-7.59,23c.21,0,.45-.07,.73-.22,.24-.12,.51-.39,.8-.81,.3-.42,.58-.91,.86-1.46,.27-.55,.53-1.12,.78-1.7,.24-.58,.44-1.1,.57-1.54l.1-1.07c.07-.62,.17-1.23,.28-1.85,.11-.62,.24-1.24,.39-1.88-.15-.35-.35-.67-.61-.97-.21-.24-.47-.35-.81-.35-.09,0-.18,0-.28,.02-.48,.1-.91,.32-1.29,.66s-.74,.75-1.06,1.24c-.32,.49-.6,1.02-.83,1.6s-.44,1.18-.6,1.79c-.16,.61-.28,1.21-.37,1.8-.08,.59-.12,1.13-.13,1.61,0,.23,0,.5,.03,.8,.02,.3,.07,.6,.14,.89,.06,.25,.15,.49,.25,.7,.1,.21,.24,.39,.41,.52,.17,.13,.36,.2,.57,.21,.02,0,.03,0,.05,0m7.59-24.5h-.06c-.76,0-1.38,.22-1.84,.62l-.5,.44v.67c-.02,.48-.04,1-.09,1.55-.05,.57-.12,1.19-.21,1.83-.09,.67-.21,1.34-.34,2.01-.13,.69-.28,1.36-.45,2l-.18,.75c-.15-.02-.3-.03-.45-.04h-.03s-.03,0-.03,0c-.58,0-1.18,.08-1.79,.24-.97,.25-1.87,.68-2.68,1.28-.75,.56-1.45,1.23-2.07,1.99-.6,.74-1.14,1.56-1.59,2.44-.44,.87-.81,1.75-1.08,2.61-.27,.87-.47,1.74-.58,2.58-.12,.88-.14,1.69-.05,2.42,.01,.12,.03,.29,.07,.48,.04,.19,.08,.37,.12,.54,.13,.49,.33,.98,.6,1.46,.31,.53,.7,.99,1.19,1.37,.49,.39,1.1,.69,1.81,.89,.41,.11,.85,.17,1.32,.17,.35,0,.72-.03,1.09-.1h.06s.06-.03,.06-.03c.57-.15,1.12-.41,1.63-.77,.45-.32,.87-.69,1.26-1.12,.18-.2,.36-.41,.53-.62,.11,.1,.22,.19,.34,.27,.62,.44,1.38,.67,2.25,.67,.32,0,.65-.03,1-.09h.03s.02,0,.02,0c.53-.11,1.01-.28,1.44-.52,.39-.22,.74-.45,1.03-.71,.29-.26,.54-.51,.75-.76,.19-.22,.34-.43,.46-.59,.76-1.08,1.38-2.24,1.86-3.45,.44-1.12,.83-2.25,1.17-3.36,.07-.22,.13-.43,.19-.63,.05-.18,.1-.34,.16-.5l.02-.05v-.05c.23-.79-.08-1.58-.77-1.99-.32-.19-.67-.3-1.07-.33-.08,0-.16-.01-.24-.01-.28,0-.56,.04-.83,.13-.64,.2-1.1,.65-1.27,1.23-.05,.2-.09,.35-.13,.49-.02,.08-.05,.17-.08,.26l-.02,.04v.04c-.2,.6-.41,1.24-.63,1.9-.17,.52-.37,1.03-.58,1.53l.32-2.27h0c.08-.42,.16-.85,.26-1.28,.28-1.27,.57-2.54,.87-3.77l.57-2.32h-.03c.09-.38,.18-.78,.28-1.2,.16-.73,.32-1.41,.45-2.06,.14-.66,.25-1.24,.35-1.76,.1-.56,.16-.94,.19-1.21,.08-.83-.25-1.59-.91-2.17-.45-.38-.97-.67-1.56-.86-.53-.17-1.07-.26-1.61-.26h0Zm-7.4,22.77s-.01-.05-.02-.07c-.05-.2-.08-.41-.1-.62-.02-.27-.03-.5-.03-.7,0-.39,.05-.88,.12-1.41,.07-.53,.18-1.07,.33-1.62,.15-.55,.33-1.09,.54-1.61,.2-.49,.43-.94,.7-1.34,.24-.37,.51-.68,.79-.94,.13-.11,.26-.2,.4-.26-.1,.46-.19,.92-.28,1.37-.11,.63-.21,1.29-.29,1.94l-.09,.94c-.12,.35-.28,.78-.48,1.26-.24,.56-.48,1.1-.74,1.61-.24,.48-.49,.91-.74,1.27-.04,.06-.08,.12-.12,.16h0Z"/></g><g><path d="M230.84,255.48c-.63,0-1.19-.19-1.64-.57-.58-.48-.99-1.14-1.21-1.97-.04-.16-.09-.36-.13-.58-.04-.24-.07-.46-.08-.66-.1-.83-.13-1.74-.09-2.65,.04-.89,.11-1.8,.23-2.72,.11-.89,.26-1.81,.44-2.74,.16-.8,.32-1.59,.49-2.39-.16,.14-.31,.29-.46,.45l-.14,.14-.14,.04c-.23,.13-.47,.2-.72,.2-.29,0-.54-.08-.76-.21-.29-.19-.46-.48-.49-.81-.02-.21,.02-.54,.3-.89,1.02-1.15,2.1-2.18,3.23-3.06,.37-2.23,.55-4.12,.54-5.64v-.34s.25-.22,.25-.22c.32-.29,.77-.44,1.36-.46h.15c.43,0,.87,.06,1.3,.19,.5,.15,.94,.38,1.31,.69,.62,.51,.71,1.1,.68,1.5-.03,.24-.07,.55-.13,.98,0,0,0,.02,0,.03,.91-.38,1.83-.71,2.78-.96,.19-.05,.42-.11,.69-.17,.28-.07,.52-.12,.72-.15l.46-.08,.27,.38c.19,.26,.28,.58,.27,.94,0,.29-.07,.57-.17,.84-.12,.28-.27,.52-.47,.73-.26,.28-.6,.44-.96,.46-.11,.03-.31,.07-.5,.11-.19,.04-.38,.09-.57,.14-.6,.17-1.2,.37-1.76,.59-.47,.19-.94,.4-1.41,.64l-.52,2.49-.07,.36c-.08,.37-.18,.85-.31,1.47-.13,.62-.26,1.31-.4,2.07-.14,.76-.27,1.55-.4,2.37-.13,.82-.23,1.6-.31,2.36-.08,.75-.12,1.43-.13,2.04,0,.42,.02,.77,.06,1.05,.15-.17,.3-.35,.43-.55,.32-.48,.61-1,.86-1.56,.26-.58,.49-1.19,.7-1.83,.06-.19,.12-.38,.18-.57h0s.36-1.3,.36-1.3c.05-.18,.26-.82,.31-.99,.05-.19,.22-.55,.74-.73,.2-.07,.4-.1,.6-.1,.06,0,.12,0,.17,0,.26,.02,.5,.09,.71,.21,.39,.22,.58,.62,.52,1.07v.05s-.4,1.34-.4,1.34c-.15,.51-.31,1.04-.48,1.6-.17,.57-.37,1.13-.6,1.71-.23,.58-.48,1.15-.74,1.68-.28,.56-.6,1.09-.93,1.57-.1,.14-.24,.33-.41,.55-.19,.24-.42,.47-.69,.69-.27,.22-.57,.42-.9,.61-.35,.2-.74,.36-1.16,.47-.31,.07-.58,.1-.83,.1Z"/><path class="cls-1" d="M231.96,231.12c.36,0,.72,.05,1.08,.16,.4,.12,.75,.31,1.05,.55,.3,.25,.44,.54,.41,.87-.02,.2-.06,.51-.12,.92s-.14,.89-.25,1.42c1.28-.64,2.6-1.15,3.97-1.52,.18-.05,.4-.11,.66-.17,.26-.06,.49-.11,.67-.14,.09,.13,.14,.29,.13,.49,0,.2-.04,.39-.12,.57-.08,.18-.18,.35-.32,.49-.13,.14-.29,.22-.46,.23-.22,.04-.43,.08-.63,.13-.2,.04-.4,.09-.6,.15-.63,.17-1.25,.38-1.85,.62-.6,.24-1.2,.52-1.79,.84l-.59,2.83-.07,.37c-.08,.35-.18,.84-.31,1.46-.13,.62-.26,1.32-.4,2.08-.14,.76-.27,1.56-.4,2.39s-.24,1.63-.32,2.39-.12,1.47-.13,2.11c0,.64,.04,1.15,.14,1.53,.11,.4,.22,.63,.33,.69l.22-.06c.44-.31,.83-.73,1.17-1.24,.34-.51,.65-1.07,.92-1.67,.27-.61,.51-1.24,.73-1.9,.22-.66,.41-1.29,.57-1.9h-.03c.05-.16,.1-.33,.15-.49,.05-.16,.11-.32,.16-.49,.03-.11,.12-.18,.27-.23,.12-.04,.24-.06,.36-.06,.03,0,.07,0,.11,0,.16,.01,.29,.05,.41,.12,.11,.07,.16,.17,.14,.31l-.37,1.29c-.15,.51-.31,1.04-.48,1.58-.17,.55-.36,1.1-.58,1.65-.22,.55-.46,1.09-.72,1.62-.26,.53-.55,1.02-.88,1.47-.1,.14-.22,.31-.38,.51-.16,.2-.35,.39-.58,.58-.23,.19-.49,.37-.79,.54s-.63,.3-.99,.4c-.23,.05-.44,.07-.64,.07-.46,0-.84-.13-1.16-.4-.46-.38-.78-.91-.97-1.59-.04-.14-.08-.32-.11-.52-.04-.2-.06-.39-.07-.56-.1-.84-.13-1.71-.09-2.59,.04-.88,.11-1.77,.22-2.66s.25-1.79,.43-2.69c.18-.9,.36-1.8,.56-2.71l.36-1.78c-.37,.29-.73,.59-1.09,.89-.36,.3-.71,.63-1.06,.97h-.05c-.14,.11-.28,.16-.41,.16,0,0,0,0,0,0-.13,0-.25-.03-.34-.09-.09-.06-.14-.14-.15-.25s.04-.22,.14-.34c1.04-1.18,2.15-2.22,3.34-3.12,.41-2.39,.61-4.42,.6-6.06,.19-.17,.48-.26,.88-.27,.04,0,.08,0,.12,0m0-1.5c-.06,0-.12,0-.17,0-.76,.03-1.38,.25-1.84,.65l-.5,.45v.67c0,1.41-.16,3.17-.49,5.23-1.08,.87-2.11,1.86-3.08,2.95l-.02,.02-.02,.02c-.45,.55-.5,1.08-.47,1.43,.05,.56,.35,1.05,.82,1.36,.34,.22,.73,.33,1.14,.34h0c.14,0,.27-.01,.4-.04-.05,.24-.09,.47-.14,.71-.19,.95-.34,1.89-.45,2.79-.11,.94-.19,1.87-.23,2.78-.04,.93,0,1.87,.09,2.78,.01,.21,.04,.44,.08,.69,.05,.26,.09,.48,.14,.66,.27,.99,.76,1.78,1.46,2.36,.58,.48,1.32,.74,2.12,.74,.31,0,.63-.04,.96-.11h.04s.04-.02,.04-.02c.48-.13,.92-.31,1.33-.54,.37-.21,.71-.44,1.01-.68,.31-.26,.58-.53,.8-.81,.18-.23,.34-.43,.46-.62,.34-.48,.67-1.04,.97-1.63,.28-.56,.54-1.14,.77-1.74,.24-.61,.44-1.19,.61-1.76,.17-.56,.33-1.09,.48-1.6l.38-1.3,.03-.1v-.11c.12-.75-.22-1.44-.86-1.81-.32-.18-.66-.28-1.03-.32-.07,0-.15-.01-.23-.01-.28,0-.57,.05-.84,.14-.63,.22-1.07,.67-1.23,1.25-.04,.13-.09,.28-.14,.42-.06,.17-.11,.35-.17,.53l-.71,2.38c-.09,.26-.2,.53-.3,.78,0-.05,0-.1,.01-.15,.08-.74,.18-1.52,.31-2.32,.13-.82,.26-1.6,.4-2.36,.14-.75,.27-1.43,.4-2.05,.13-.61,.23-1.09,.3-1.43l.08-.41,.44-2.11c.34-.17,.69-.32,1.03-.45,.54-.22,1.11-.41,1.68-.57,.17-.05,.35-.09,.53-.13,.17-.04,.34-.07,.51-.11,.51-.06,.98-.29,1.35-.69,.25-.26,.46-.58,.61-.94,.14-.36,.22-.72,.23-1.1,.01-.53-.13-1.02-.42-1.41l-.55-.76-.92,.16c-.21,.04-.46,.09-.76,.16-.29,.07-.52,.13-.72,.18-.57,.16-1.14,.34-1.7,.54,0-.75-.34-1.43-.96-1.94-.45-.37-.97-.65-1.57-.83-.5-.15-1.01-.23-1.52-.23h0Z"/></g><g><path d="M238.13,253.47c-.2,0-.41-.02-.63-.05-.39-.05-.79-.15-1.16-.29-.53-.19-.87-.48-1.03-.86l-.02-.06v-.06c-.24-1-.36-2.05-.39-3.14-.03-1.08,0-2.2,.11-3.32,.1-1.11,.26-2.27,.46-3.43,.2-1.14,.4-2.28,.6-3.41l.33-1.81c.24-1.37,.45-2.75,.61-4.12,.16-1.33,.24-2.51,.22-3.49v-.35s.26-.23,.26-.23c.33-.29,.79-.44,1.35-.47h.16c.43,0,.85,.06,1.27,.19,.48,.15,.92,.38,1.29,.68,.61,.49,.73,1.06,.73,1.45-.03,.33-.08,.74-.18,1.28l-.3,1.72c-.11,.63-.23,1.3-.36,2-.1,.53-.2,1.04-.29,1.53,.64-.6,1.37-1.04,2.17-1.33,.21-.06,.38-.08,.55-.08,.21,0,.43,.03,.66,.09,.36,.1,.71,.25,1.04,.45,.34,.21,.63,.45,.87,.73,.31,.35,.46,.73,.47,1.13-.07,.95-.16,1.83-.27,2.7-.11,.82-.2,1.53-.29,2.12l-.18,1.44c-.06,.43-.1,.84-.12,1.25-.02,.38-.02,.78,.02,1.19,.01,.16,.03,.33,.06,.52,.22-.28,.46-.62,.71-1.02,.49-.76,.93-1.76,1.32-2.98,.19-.59,.36-1.18,.52-1.77l.21-.87c.05-.21,.22-.58,.74-.76,.2-.07,.41-.11,.62-.11h.15c.26,.03,.5,.1,.71,.21,.42,.24,.6,.68,.49,1.15l-.74,2.76c-.15,.5-.35,1.1-.62,1.83-.27,.73-.61,1.47-1.02,2.2-.41,.73-.88,1.4-1.41,2.01-.59,.66-1.26,1.11-2.01,1.32-.38,.11-.77,.16-1.14,.16h-.16c-.46-.03-.89-.13-1.28-.31-.41-.19-.79-.48-1.1-.88-.31-.38-.54-.87-.68-1.45-.12-.5-.19-1.02-.22-1.55-.02-.51-.01-1.06,.02-1.64,.03-.57,.09-1.2,.16-1.9,.07-.69,.16-1.45,.27-2.31,.01-.14,.03-.27,.04-.41-.44,.68-.84,1.35-1.18,2.01-.33,.65-.67,1.38-.99,2.16-.15,1.14-.23,2.3-.24,3.44-.01,1.14,.1,2.32,.34,3.49,.05,.28,0,.54-.16,.75-.18,.25-.46,.4-.84,.46-.16,.02-.33,.04-.51,.04Z"/><path class="cls-1" d="M238.99,229.12c.35,0,.7,.05,1.05,.16,.39,.12,.74,.3,1.04,.55,.3,.25,.45,.53,.45,.86-.02,.26-.08,.64-.17,1.15-.09,.51-.19,1.08-.3,1.71-.11,.63-.23,1.3-.36,2-.13,.7-.26,1.37-.39,2l-.54,2.51-.04,.16c.49-.82,1.04-1.55,1.67-2.21,.63-.65,1.35-1.13,2.16-1.42,.09-.03,.19-.04,.3-.04,.14,0,.3,.02,.47,.07,.29,.08,.58,.2,.85,.37,.27,.17,.5,.36,.69,.58,.19,.22,.29,.43,.29,.65-.07,.91-.16,1.78-.26,2.59-.11,.82-.2,1.52-.29,2.1-.07,.52-.13,1.01-.18,1.45-.06,.44-.1,.88-.12,1.3-.03,.42-.02,.85,.02,1.29,.04,.44,.11,.91,.22,1.42,0,.09,.05,.18,.14,.25,.04,.03,.08,.04,.13,.04,.08,0,.17-.03,.28-.1,.4-.37,.86-.96,1.38-1.78,.52-.82,.99-1.87,1.4-3.15,.2-.6,.37-1.2,.53-1.81l.22-.88c.03-.11,.12-.18,.27-.24,.12-.04,.24-.06,.37-.06,.03,0,.06,0,.09,0,.16,.01,.29,.05,.41,.12,.11,.06,.15,.17,.12,.32l-.73,2.74c-.14,.47-.34,1.05-.6,1.76-.26,.71-.59,1.41-.97,2.1-.38,.69-.82,1.32-1.31,1.88-.49,.56-1.04,.92-1.65,1.1-.31,.09-.63,.13-.94,.13-.04,0-.09,0-.13,0-.36-.02-.69-.09-1-.24-.31-.14-.59-.37-.83-.67-.24-.3-.42-.69-.54-1.16-.11-.45-.17-.92-.2-1.4-.02-.48-.01-1,.02-1.56s.08-1.18,.15-1.86,.16-1.44,.26-2.29c.04-.4,.07-.77,.08-1.11,0-.34-.02-.64-.09-.89-.03-.1-.09-.16-.17-.16-.06,0-.13,.03-.22,.08-.21,.13-.5,.5-.89,1.11-.47,.72-.89,1.43-1.25,2.13-.36,.71-.71,1.48-1.06,2.31-.16,1.21-.25,2.42-.26,3.63-.02,1.21,.11,2.43,.36,3.65,.03,.17-.1,.27-.38,.31-.13,.02-.26,.03-.4,.03-.17,0-.34-.01-.53-.04-.34-.05-.68-.13-1-.25-.33-.12-.52-.27-.59-.44-.21-.95-.33-1.95-.36-3-.03-1.05,0-2.13,.11-3.23,.1-1.11,.25-2.23,.45-3.38s.4-2.28,.6-3.4l.33-1.81c.24-1.39,.45-2.78,.62-4.17,.17-1.39,.24-2.58,.23-3.59,.2-.17,.5-.27,.89-.29,.04,0,.09,0,.13,0m0-1.5c-.06,0-.12,0-.19,0-.75,.03-1.36,.25-1.82,.65l-.53,.46v.7c.02,.95-.05,2.09-.21,3.39-.16,1.36-.37,2.73-.6,4.09l-.33,1.81c-.2,1.13-.41,2.27-.6,3.41-.2,1.19-.36,2.36-.46,3.49-.11,1.15-.14,2.3-.12,3.41,.03,1.14,.16,2.25,.4,3.29l.03,.12,.05,.11c.24,.59,.73,1.02,1.47,1.29,.42,.16,.87,.27,1.32,.33,.25,.03,.5,.05,.73,.05,.22,0,.42-.01,.62-.04,.73-.11,1.13-.47,1.34-.76,.27-.37,.38-.84,.29-1.3-.24-1.17-.35-2.29-.34-3.37,.01-1.08,.09-2.18,.22-3.26,.1-.23,.2-.46,.29-.68-.02,.31-.05,.6-.06,.88-.04,.6-.04,1.18-.02,1.71,.03,.58,.11,1.15,.24,1.69,.17,.69,.45,1.28,.82,1.75,.39,.48,.85,.85,1.38,1.09,.48,.22,1,.35,1.55,.37,.07,0,.14,0,.2,0,.45,0,.9-.06,1.34-.19,.89-.26,1.69-.78,2.37-1.55,.57-.64,1.07-1.36,1.5-2.14,.42-.77,.78-1.54,1.07-2.3,.28-.75,.49-1.36,.64-1.86l.74-2.78c.2-.83-.13-1.61-.82-2.01-.33-.18-.67-.28-1.03-.31-.07,0-.14,0-.21,0-.29,0-.58,.05-.86,.15-.63,.23-1.07,.69-1.23,1.28l-.22,.89c-.14,.55-.31,1.12-.5,1.71-.17,.54-.36,1.03-.55,1.48,0-.03,0-.06,.01-.09l.1-.79,.08-.67c.08-.57,.18-1.27,.28-2.1,.11-.88,.21-1.78,.27-2.68v-.06s0-.06,0-.06c0-.4-.12-1-.65-1.61-.28-.33-.63-.62-1.03-.87-.4-.24-.81-.42-1.24-.54-.3-.08-.59-.12-.86-.12-.25,0-.48,.03-.71,.1h-.05s-.05,.03-.05,.03c-.28,.1-.56,.22-.83,.36,.11-.6,.22-1.18,.31-1.73,.09-.48,.16-.94,.23-1.35l.06-.36c.09-.55,.15-.96,.18-1.27v-.06s0-.06,0-.06c0-.78-.35-1.51-1.01-2.04-.46-.37-.98-.64-1.55-.81-.49-.15-.99-.23-1.49-.23h0Z"/></g><g><path d="M252.82,249.13c-.69,0-1.33-.13-1.91-.4-1.11-.51-1.91-1.42-2.36-2.71-.38-1.12-.5-2.3-.38-3.51,.12-1.17,.47-2.55,1.03-4.09,.19-.51,.48-1.08,.86-1.71,.38-.63,.85-1.25,1.39-1.84,.54-.59,1.16-1.13,1.82-1.6,.7-.49,1.45-.84,2.23-1.06,.38-.1,.74-.15,1.09-.15,.43,0,.83,.08,1.2,.23,.72,.3,1.22,.87,1.45,1.63,.2,.67,.16,1.45-.11,2.39-.36,1.68-1.09,3.27-2.16,4.67-.94,1.24-2.09,2.33-3.42,3.26,.14,.36,.34,.7,.59,1.01,.33,.4,.62,.46,.82,.46,.15-.02,.45-.14,.79-.35,.38-.24,.76-.59,1.14-1.03,.39-.46,.79-1.05,1.17-1.74,.38-.69,.72-1.5,1-2.39,.16-.48,.29-.95,.4-1.39,.11-.46,.21-.89,.3-1.3v-.05s.03-.05,.03-.05c.13-.35,.37-.62,.7-.8,.28-.15,.56-.22,.85-.22,.38,0,.71,.14,.95,.4,.16,.17,.41,.55,.25,1.17l-.26,1c-.23,.87-.53,1.84-.9,2.88-.38,1.09-.91,2.23-1.57,3.37-.43,.67-.88,1.2-1.36,1.63-.47,.41-.93,.76-1.39,1.04-.47,.28-.9,.49-1.32,.64-.38,.14-.69,.24-.91,.3-.71,.21-1.38,.32-2,.32Zm3.42-14.03c-.44,.29-.85,.7-1.2,1.22-.44,.66-.79,1.38-1.05,2.17-.26,.79-.46,1.6-.58,2.42-.02,.14-.04,.28-.05,.42,.54-.53,1.02-1.13,1.44-1.77,.72-1.11,1.23-2.38,1.5-3.77,.03-.21,0-.45-.06-.67,0,0,0,0,0-.01Z"/><path class="cls-1" d="M256.59,232.81c.33,0,.63,.06,.91,.17,.51,.22,.85,.6,1.02,1.16,.16,.52,.12,1.17-.11,1.96-.35,1.63-1.03,3.1-2.04,4.43-1.01,1.33-2.24,2.46-3.71,3.41l.06,.22c.17,.57,.45,1.1,.84,1.58,.39,.48,.85,.73,1.38,.74,.36-.03,.76-.18,1.21-.46,.44-.28,.88-.67,1.31-1.18,.43-.51,.85-1.13,1.25-1.87,.4-.73,.76-1.58,1.06-2.52,.16-.5,.3-.98,.41-1.44,.12-.46,.22-.9,.31-1.32,.06-.17,.18-.31,.35-.4,.17-.09,.33-.13,.5-.13h0c.16,0,.3,.05,.39,.16,.1,.11,.12,.26,.07,.48l-.26,.98c-.22,.83-.51,1.77-.88,2.82-.37,1.05-.87,2.14-1.51,3.25-.37,.58-.77,1.06-1.21,1.44s-.86,.7-1.28,.95c-.42,.25-.82,.44-1.19,.58-.37,.13-.66,.23-.88,.29-.64,.19-1.23,.29-1.78,.29-.58,0-1.12-.11-1.59-.33-.92-.42-1.58-1.18-1.97-2.27-.34-1.01-.46-2.07-.34-3.19,.12-1.12,.45-2.42,.99-3.91,.17-.46,.44-.99,.8-1.58,.36-.59,.79-1.17,1.3-1.72,.51-.55,1.07-1.05,1.7-1.49,.63-.44,1.29-.76,2-.95,.31-.09,.61-.13,.89-.13m-4.07,10.2c1.15-.83,2.12-1.85,2.9-3.05,.78-1.2,1.32-2.54,1.61-4.04,.05-.36,.02-.71-.07-1.03-.08-.27-.19-.46-.33-.57-.08-.06-.16-.09-.25-.09-.08,0-.17,.02-.27,.07-.65,.35-1.22,.89-1.7,1.6-.48,.72-.86,1.5-1.14,2.34s-.48,1.69-.61,2.55c-.12,.86-.17,1.59-.14,2.21m4.07-11.7h0c-.41,0-.84,.06-1.28,.18-.87,.24-1.7,.63-2.47,1.17-.71,.5-1.36,1.07-1.94,1.7-.57,.63-1.07,1.29-1.48,1.96-.41,.68-.71,1.28-.92,1.83-.59,1.61-.95,3.05-1.08,4.28-.13,1.32,0,2.61,.41,3.82,.53,1.51,1.46,2.56,2.76,3.16,.67,.31,1.42,.47,2.22,.47,.69,0,1.43-.12,2.21-.35,.23-.07,.55-.17,.94-.31,.47-.17,.95-.4,1.46-.7,.5-.3,1-.67,1.5-1.12,.53-.47,1.02-1.06,1.47-1.75l.02-.03,.02-.03c.69-1.19,1.24-2.37,1.63-3.51,.37-1.05,.67-2.04,.91-2.92l.26-.99c.18-.73,.02-1.41-.42-1.89-.38-.41-.91-.63-1.49-.63-.42,0-.82,.11-1.21,.31-.06,.03-.11,.06-.16,.1,.2-.88,.19-1.65-.01-2.34-.29-.98-.94-1.71-1.87-2.1-.47-.2-.97-.29-1.49-.29h0Zm-2.09,13.17c1.17-.89,2.2-1.9,3.06-3.04,.18-.24,.36-.48,.52-.73-.21,.56-.44,1.07-.69,1.53-.36,.65-.72,1.19-1.08,1.62-.33,.39-.66,.69-.97,.89-.2,.13-.34,.19-.43,.21-.04-.02-.1-.07-.19-.17-.08-.1-.15-.2-.22-.31h0Z"/></g><g><path d="M268.68,244.41c-.56,0-1.06-.15-1.51-.46-.63-.44-1.09-1.08-1.36-1.91-.13-.41-.23-.83-.27-1.25-.04-.36-.06-.79-.08-1.28-.02-.49-.02-1.01-.02-1.58l.03-1.72c.01-.6,.04-1.19,.06-1.78,.02-.82,.04-1.63,.06-2.43,.01-.78,0-1.53-.04-2.24l-.03-.58,.6-.19c.31-.23,.71-.34,1.2-.34,.47,0,.93,.08,1.39,.22,.48,.15,.91,.39,1.28,.69,.6,.5,.71,1.08,.7,1.47l-.2,1.89c-.08,.62-.15,1.3-.23,2.05-.08,.75-.13,1.49-.17,2.23-.04,.74-.05,1.43-.04,2.04,.01,.47,.05,.8,.1,1.04,.14-.19,.28-.41,.42-.66,.31-.58,.6-1.23,.84-1.94,.24-.72,.47-1.47,.68-2.25,.08-.31,.16-.61,.23-.9h0s.29-1.25,.29-1.25c0,0,.13-.53,.15-.62l-.16-.49,.26-.12c.06-.77,.1-1.55,.12-2.35,.02-.88,.02-1.68,0-2.37l-.02-.57,.59-.19c.31-.23,.71-.34,1.2-.34,.48,0,.94,.08,1.39,.22,.47,.15,.9,.38,1.27,.69,.6,.5,.71,1.08,.7,1.47,0,.23-.03,.57-.07,1.01-.04,.43-.09,.94-.16,1.52-.08,.82-.17,1.73-.27,2.71-.1,.98-.19,1.89-.25,2.73-.02,.24-.04,.47-.05,.7,.29-.55,.59-1.18,.89-1.88,.42-.96,.83-2.03,1.24-3.16,.4-1.13,.76-2.23,1.06-3.27,.3-1.03,.52-1.95,.67-2.74,.18-1,.13-1.34,.1-1.42l-.06-.21,.06-.21c.13-.41,.49-.68,.92-.68,.15,0,.3,.03,.47,.09,.3,.12,.6,.3,.89,.54,.28,.23,.52,.5,.74,.79,.32,.44,.42,.86,.33,1.25l-.75,2.46c-.29,.95-.64,1.99-1.03,3.09-.39,1.09-.83,2.2-1.3,3.29-.48,1.11-1.01,2.16-1.57,3.11-.57,.97-1.2,1.83-1.85,2.53-.71,.76-1.48,1.27-2.31,1.51-.29,.09-.58,.14-.88,.14-.35,0-.7-.07-1.02-.22-.4-.18-.73-.48-.98-.88-.07,.12-.13,.24-.2,.35-.1,.17-.23,.36-.39,.58-.19,.26-.41,.5-.66,.72-.24,.22-.54,.44-.87,.65-.35,.22-.73,.39-1.14,.53-.36,.1-.66,.14-.95,.14Z"/><path class="cls-1" d="M282.17,224.48c.06,0,.13,.01,.21,.04,.22,.08,.45,.22,.68,.41,.23,.19,.43,.41,.61,.66,.18,.25,.25,.46,.2,.63-.2,.65-.45,1.46-.74,2.42-.3,.96-.64,1.98-1.02,3.06-.39,1.08-.81,2.16-1.29,3.25-.47,1.09-.98,2.1-1.53,3.03-.55,.94-1.14,1.73-1.75,2.4s-1.28,1.1-1.97,1.3c-.23,.07-.45,.11-.66,.11-.25,0-.48-.05-.71-.15-.41-.19-.71-.57-.9-1.13-.05-.16-.1-.36-.14-.6-.04-.24-.06-.52-.07-.83-.13,.44-.29,.85-.46,1.24s-.37,.76-.57,1.1c-.09,.15-.21,.32-.36,.53-.15,.21-.33,.41-.55,.61-.22,.2-.48,.39-.77,.57-.29,.18-.62,.33-.97,.45-.25,.07-.49,.1-.72,.1-.4,0-.76-.11-1.08-.33-.49-.34-.85-.85-1.07-1.52-.12-.37-.2-.74-.24-1.1-.03-.34-.06-.75-.08-1.23-.02-.47-.02-.99-.02-1.54s.02-1.12,.03-1.72c.01-.59,.04-1.18,.06-1.76,.02-.83,.04-1.65,.06-2.45,.01-.8,0-1.57-.04-2.3l.19-.06c.17-.17,.45-.26,.82-.26,0,0,.01,0,.02,0,.38,0,.77,.07,1.15,.18,.38,.12,.72,.31,1.02,.55,.3,.25,.44,.54,.43,.88l-.2,1.83c-.07,.61-.15,1.3-.23,2.06-.08,.76-.13,1.52-.18,2.27-.04,.75-.05,1.45-.04,2.1,.02,.65,.08,1.17,.21,1.54,.15,.45,.27,.67,.37,.67,0,0,.01,0,.02,0l.21-.07c.4-.33,.77-.8,1.11-1.42s.63-1.31,.89-2.06c.26-.75,.49-1.52,.69-2.3,.21-.78,.39-1.51,.55-2.17h-.03c.04-.16,.08-.3,.1-.41,.02-.11,.06-.24,.1-.42-.01-.04,0-.06,.04-.07,.08-.97,.13-1.91,.15-2.83,.03-.92,.02-1.73,0-2.43l.19-.06c.18-.17,.45-.26,.83-.26,0,0,0,0,.01,0,.38,0,.77,.07,1.15,.19s.72,.31,1.02,.55c.3,.25,.44,.54,.43,.88,0,.22-.03,.54-.07,.96-.04,.42-.09,.92-.16,1.5-.08,.83-.17,1.74-.28,2.73-.1,.99-.19,1.9-.26,2.75-.07,.85-.11,1.56-.12,2.13,0,.56,.03,.84,.12,.84,0,0,0,0,0,0,.29-.15,.63-.58,1.03-1.28,.4-.7,.81-1.54,1.24-2.52s.84-2.05,1.25-3.21,.77-2.26,1.07-3.31c.3-1.05,.54-1.99,.69-2.81,.15-.83,.18-1.41,.09-1.75,.03-.1,.1-.15,.2-.15m0-1.5c-.77,0-1.41,.47-1.64,1.21l-.13,.41,.11,.42s0,0,0,0c0,0,.03,.27-.12,1.09-.14,.76-.36,1.66-.66,2.67-.3,1.03-.65,2.11-1.05,3.22-.08,.22-.16,.44-.24,.66,.05-.51,.1-.99,.14-1.45,.07-.56,.12-1.07,.16-1.51,.04-.46,.07-.81,.07-1.05,.02-.81-.32-1.54-.97-2.08-.45-.37-.96-.65-1.52-.83-.52-.16-1.05-.25-1.59-.26-.63,0-1.15,.14-1.57,.41l-1.02,.33,.05,1.14c.03,.68,.03,1.46,0,2.32-.02,.84-.07,1.67-.13,2.47-.03,.08-.04,.17-.05,.26-.03,.12-.05,.22-.07,.31-.02,.08-.05,.21-.09,.37l-.64,2.53h.02c-.13,.46-.26,.91-.41,1.35,.04-.64,.09-1.28,.16-1.93,.07-.75,.15-1.43,.22-2.03l.2-1.85v-.06s0-.06,0-.06c.02-.8-.32-1.53-.97-2.07-.44-.37-.95-.65-1.52-.83-.54-.17-1.07-.25-1.59-.26-.63,0-1.15,.14-1.57,.41l-1.04,.34,.06,1.15c.04,.69,.05,1.43,.04,2.19-.02,.79-.03,1.6-.06,2.43-.03,.56-.05,1.16-.06,1.76-.01,.6-.02,1.18-.03,1.73,0,.56,0,1.11,.02,1.62,.02,.51,.05,.94,.08,1.32,.05,.49,.16,.96,.31,1.43,.32,.98,.87,1.76,1.64,2.29,.57,.39,1.22,.59,1.93,.59,.35,0,.73-.05,1.1-.15h.04s.04-.02,.04-.02c.47-.15,.9-.36,1.3-.6,.38-.24,.71-.49,.98-.74,.29-.26,.54-.54,.76-.83,.04-.05,.07-.1,.11-.15,.19,.15,.38,.25,.55,.33,.42,.19,.87,.29,1.33,.29,.37,0,.75-.06,1.13-.19,.92-.27,1.81-.85,2.61-1.71,.69-.74,1.35-1.64,1.95-2.66,.58-.98,1.12-2.05,1.61-3.19,.48-1.11,.92-2.23,1.32-3.34,.4-1.11,.75-2.16,1.04-3.12,.3-.96,.54-1.77,.74-2.43v-.04s.02-.04,.02-.04c.11-.43,.12-1.1-.44-1.87-.26-.35-.54-.66-.86-.93-.36-.3-.73-.52-1.11-.67-.26-.1-.5-.14-.74-.14h0Z"/></g><g><path d="M288.56,237.6c-.61,0-1.23-.1-1.83-.31-1.21-.41-2.23-1.23-3.03-2.45-.26-.42-.46-.83-.6-1.23-.37-1.06-.49-2.28-.35-3.6,.14-1.29,.5-2.55,1.05-3.75,.56-1.2,1.3-2.28,2.22-3.21,.95-.96,2.06-1.62,3.31-1.94,.39-.09,.73-.13,1.05-.13,.17,0,.32,.01,.48,.03,.46,.06,.89,.19,1.25,.4,.37,.21,.68,.47,.94,.8,.18,.23,.34,.47,.47,.71,.51,.33,.93,.84,1.27,1.51,.07,.12,.13,.26,.19,.39,.06,.15,.12,.29,.17,.45,.25,.71,.4,1.48,.45,2.28,.05,.77,.02,1.58-.11,2.39-.12,.81-.33,1.6-.61,2.35-.28,.75-.63,1.47-1.06,2.13-.43,.67-.93,1.25-1.49,1.74-.58,.5-1.23,.88-1.94,1.13-.62,.21-1.25,.31-1.86,.31Zm-.16-11.75c-.24,.49-.42,1.03-.56,1.61s-.22,1.18-.25,1.78c-.04,.59-.02,1.18,.04,1.75,.06,.55,.16,1.05,.32,1.49,.21,.61,.51,1.09,.87,1.41,.18,.16,.37,.23,.6,.23,.12,0,.25-.02,.4-.06,.49-.14,.89-.49,1.25-1.06,.41-.66,.73-1.44,.94-2.3,.22-.88,.33-1.81,.33-2.74,0-.65-.07-1.24-.19-1.76-.08,.18-.13,.35-.17,.53-.05,.21-.03,.3-.03,.32l.16,.66-1.18,.41h-.12c-.24,0-.58-.07-.89-.39-.15-.16-.3-.36-.42-.59-.1-.2-.19-.41-.27-.62l-.17-.48c-.09-.39-.04-.72,.11-1.07,.1-.23,.23-.46,.38-.69,.03-.05,.06-.09,.1-.14-.11,.1-.23,.21-.37,.36-.27,.29-.51,.61-.71,.98l-.18,.38Z"/><path class="cls-1" d="M290.39,221.73c.13,0,.26,0,.38,.02,.38,.05,.7,.15,.98,.31,.28,.16,.52,.36,.72,.61,.19,.25,.36,.51,.49,.78,.46,.25,.85,.69,1.17,1.31,.06,.12,.12,.24,.17,.36,.05,.12,.1,.25,.15,.39,.23,.65,.36,1.35,.41,2.08,.05,.73,.01,1.48-.1,2.23-.12,.75-.3,1.48-.57,2.2-.26,.72-.59,1.38-.98,1.99-.39,.61-.84,1.14-1.35,1.58s-1.07,.77-1.69,.99c-.54,.18-1.08,.27-1.61,.27s-1.06-.09-1.59-.27c-1.05-.35-1.93-1.07-2.64-2.15-.22-.36-.39-.71-.52-1.06-.34-.97-.44-2.06-.31-3.27,.13-1.21,.46-2.38,.99-3.51s1.22-2.13,2.07-3,1.84-1.45,2.97-1.74c.31-.07,.6-.1,.87-.1m-2.7,3.79h.03c-.27,.54-.47,1.13-.62,1.76-.15,.63-.24,1.27-.27,1.9-.04,.63-.02,1.26,.04,1.87s.18,1.16,.35,1.66c.26,.74,.62,1.32,1.09,1.73,.32,.28,.68,.42,1.09,.42,.19,0,.39-.03,.61-.09,.66-.19,1.22-.65,1.68-1.38,.46-.73,.8-1.57,1.04-2.52,.23-.95,.35-1.92,.35-2.92,0-1-.14-1.86-.41-2.6-.12-.35-.23-.55-.33-.6-.16,.06-.31,.18-.46,.38-.15,.2-.28,.42-.39,.67-.11,.25-.2,.5-.26,.76-.06,.26-.07,.48-.02,.66l-.42,.15s0,0,0,0c-.11,0-.23-.05-.33-.16-.11-.11-.21-.25-.29-.42-.09-.17-.16-.34-.22-.51-.06-.18-.12-.33-.17-.48-.03-.15,0-.32,.09-.52,.09-.2,.2-.39,.32-.57,.12-.18,.25-.35,.39-.5,.13-.16,.22-.26,.26-.31,.13-.14,.26-.25,.39-.32-.1-.24-.26-.42-.46-.55-.08-.05-.19-.08-.3-.08-.16,0-.36,.05-.59,.15-.34,.16-.72,.46-1.13,.89-.41,.44-.76,.96-1.05,1.55m2.7-5.29c-.38,0-.78,.05-1.19,.14h-.03s-.03,.01-.03,.01c-1.39,.36-2.62,1.08-3.66,2.14-.97,.99-1.77,2.14-2.36,3.42-.59,1.28-.97,2.62-1.12,3.98-.16,1.43-.03,2.76,.38,3.93,.16,.45,.38,.92,.66,1.37,.92,1.39,2.07,2.31,3.44,2.78,.68,.23,1.37,.35,2.07,.35s1.39-.12,2.08-.34c.82-.28,1.55-.71,2.2-1.28,.61-.53,1.16-1.17,1.62-1.9,.45-.7,.83-1.47,1.13-2.28,.3-.79,.52-1.63,.65-2.49,.13-.87,.17-1.73,.11-2.56-.05-.86-.22-1.7-.49-2.47-.06-.17-.12-.33-.18-.48-.08-.17-.15-.32-.22-.46-.36-.71-.82-1.27-1.37-1.68-.13-.22-.28-.43-.44-.64-.33-.41-.72-.75-1.17-1-.45-.25-.97-.42-1.53-.49-.18-.02-.37-.04-.57-.04h0Zm-.98,13.12s-.05,0-.11-.05c-.27-.24-.49-.6-.66-1.09-.13-.38-.23-.83-.28-1.32-.06-.53-.07-1.07-.04-1.62,.03-.55,.11-1.11,.24-1.65,.04-.15,.07-.3,.12-.45,.05,.1,.09,.2,.15,.3,.15,.29,.34,.55,.54,.76,.38,.4,.88,.62,1.41,.62h.25l.25-.08,.28-.1c-.04,.62-.14,1.23-.28,1.82-.19,.79-.48,1.49-.85,2.09-.38,.61-.71,.71-.82,.74-.1,.03-.16,.03-.19,.03h0Z"/></g><g><path d="M300.94,233.36c-.52,0-.99-.13-1.41-.38-.69-.42-1.17-1.02-1.43-1.79-.17-.52-.25-1.06-.25-1.62,0-.52,.05-1.05,.12-1.56,.07-.53,.18-1.06,.33-1.58,.14-.5,.27-.99,.41-1.48,.04-.13,.07-.24,.1-.38,.04-.21,.1-.39,.17-.54,0,0,.34-1.15,.36-1.23-.17,.08-.36,.15-.58,.22-.15,.54-.29,1.08-.41,1.65-.16,.7-.3,1.36-.42,1.99v.05s-.03,.05-.03,.05c-.11,.33-.37,.58-.73,.71-.22,.08-.45,.13-.68,.14h-.02c-.33,0-.56-.05-.77-.16-.43-.23-.61-.7-.47-1.19,0,0,.28-1.44,.34-1.72,.07-.35,.14-.69,.22-1.06l.12-.54c-.24-.2-.42-.45-.53-.77-.1-.28-.15-.59-.16-.96,0-.32,.01-.65,.05-1,.04-.33,.09-.66,.15-1.01,.06-.34,.12-.67,.2-.98,.06-.24,.1-.48,.13-.72,.03-.23,.04-.48,.04-.72v-.79s.78,.03,.78,.03c.59,.02,1.19,.11,1.77,.25,.98,.24,1.39,.84,1.56,1.3,.11,.3,.15,.65,.13,1.09v.08s-.06,.21-.06,.21c.32-.29,.61-.58,.89-.87,.28-.29,.53-.57,.75-.83,.24-.28,.29-.39,.29-.39l.13-.29,.32-.15c.16-.06,.35-.09,.56-.09,.05,0,.11,0,.17,0,.21,.01,.42,.04,.63,.07,.22,.03,.42,.08,.6,.13,.22,.06,.35,.11,.38,.12l.06,.03,.05,.04c.28,.19,.63,.57,.69,1.3,.04,.42,0,.9-.12,1.46-.11,.51-.26,1.08-.46,1.69-.19,.6-.39,1.21-.59,1.85-.12,.38-.24,.76-.36,1.13-.12,.37-.24,.74-.36,1.12-.1,.29-.2,.59-.29,.95-.1,.36-.18,.72-.25,1.1-.07,.36-.11,.71-.12,1.03,0,.22,0,.42,.05,.58,.05-.04,.11-.1,.18-.17,.2-.21,.41-.5,.62-.85,.21-.36,.43-.78,.64-1.25,.2-.44,.37-.92,.5-1.41,.13-.56,.27-1.15,.39-1.75,.12-.6,.22-1.1,.29-1.5v-.06s.03-.06,.03-.06c.08-.22,.26-.53,.69-.71,.22-.1,.48-.15,.74-.15,.29,0,.53,.06,.74,.16,.42,.19,.65,.63,.56,1.11-.05,.26-.1,.49-.14,.72-.04,.25-.09,.51-.15,.76-.05,.3-.11,.64-.17,.97-.07,.34-.14,.68-.24,1.01-.18,.69-.42,1.41-.71,2.15-.3,.76-.66,1.49-1.09,2.17-.43,.69-.95,1.33-1.55,1.88-.62,.58-1.36,1.01-2.18,1.26-.41,.13-.81,.2-1.18,.2Z"/><path class="cls-1" d="M296.51,216.77c.54,.02,1.08,.09,1.62,.23,.54,.13,.88,.41,1.04,.83,.07,.19,.1,.46,.08,.8l-.56,2.14c-.02,.08,0,.11,.04,.11,.03,0,.08-.02,.14-.06,.15-.1,.37-.26,.64-.49,.27-.23,.58-.5,.91-.81,.33-.31,.65-.62,.94-.93s.56-.6,.79-.87c.23-.27,.37-.48,.42-.61,.08-.03,.18-.04,.31-.04,.04,0,.08,0,.12,0,.18,.01,.37,.03,.56,.06,.19,.03,.36,.07,.52,.11,.15,.04,.24,.07,.27,.08,.21,.14,.33,.39,.36,.73,.03,.35,0,.76-.11,1.25-.1,.48-.25,1.03-.44,1.62-.19,.6-.38,1.21-.59,1.84-.12,.38-.24,.76-.36,1.13-.12,.37-.24,.75-.36,1.13-.1,.27-.2,.6-.3,.97-.1,.38-.19,.76-.26,1.15-.07,.4-.12,.77-.13,1.14s.03,.68,.12,.94c.13,.35,.32,.53,.56,.53,.06,0,.12-.01,.19-.03,.19-.07,.41-.23,.65-.49,.24-.26,.48-.58,.71-.98,.23-.39,.46-.83,.68-1.32,.22-.49,.4-1,.54-1.53,.14-.59,.28-1.19,.4-1.8,.12-.61,.22-1.12,.29-1.52,.04-.11,.13-.2,.28-.26,.14-.06,.29-.09,.45-.09h0c.16,0,.3,.03,.42,.08,.12,.06,.17,.16,.14,.31-.05,.24-.1,.48-.14,.72-.04,.24-.09,.48-.14,.72-.05,.34-.11,.67-.17,.99-.06,.32-.13,.64-.22,.95-.18,.66-.4,1.35-.69,2.07-.28,.72-.62,1.4-1.03,2.04-.4,.64-.88,1.22-1.43,1.73-.55,.51-1.18,.88-1.89,1.1-.34,.11-.66,.16-.95,.16-.38,0-.72-.09-1.02-.27-.54-.32-.9-.78-1.1-1.38-.14-.45-.21-.91-.21-1.38,0-.48,.04-.96,.11-1.46s.17-.99,.31-1.48c.13-.5,.27-.99,.41-1.48,.04-.11,.07-.26,.11-.43,.04-.17,.08-.32,.14-.44l.31-1.04c.15-.55,.3-1.04,.45-1.46,.14-.42,.25-.67,.32-.76-.2,.11-.37,.22-.53,.31s-.3,.2-.44,.31c-.17,.12-.36,.24-.54,.35-.19,.11-.45,.22-.79,.32l-.32,.12c-.19,.67-.37,1.35-.53,2.06-.16,.71-.3,1.38-.42,2.02-.04,.11-.13,.2-.28,.25-.15,.05-.3,.09-.46,.09-.02,0-.04,0-.05,0-.13,0-.25-.03-.35-.08-.11-.06-.14-.17-.1-.32,.06-.28,.12-.58,.18-.9,.06-.32,.12-.62,.18-.9,.06-.32,.13-.66,.21-1.02s.16-.72,.24-1.09c-.33-.1-.56-.31-.68-.64-.07-.19-.11-.43-.11-.72,0-.29,0-.58,.04-.9,.04-.31,.08-.63,.14-.96s.12-.65,.19-.95c.06-.26,.11-.53,.14-.8,.03-.27,.04-.54,.04-.82m-1.52-1.56l.02,1.58c0,.2,0,.41-.03,.64-.02,.2-.06,.41-.11,.61-.08,.34-.14,.68-.21,1.03-.06,.36-.12,.71-.15,1.06-.04,.38-.06,.75-.05,1.09,0,.46,.08,.85,.2,1.2,.1,.28,.24,.53,.42,.75-.01,.05-.02,.1-.03,.15-.08,.37-.15,.72-.22,1.06-.06,.29-.12,.58-.18,.9-.06,.31-.11,.59-.17,.84-.19,.8,.14,1.59,.85,1.97,.33,.18,.69,.26,1.07,.26,.04,0,.09,0,.13,0,.22,0,.44-.05,.66-.11-.05,.43-.08,.87-.08,1.3,0,.65,.09,1.28,.28,1.87,.31,.94,.92,1.7,1.76,2.21,.53,.32,1.14,.49,1.8,.49,.45,0,.92-.08,1.4-.23,.93-.29,1.76-.77,2.47-1.43,.64-.6,1.21-1.28,1.68-2.03,.45-.72,.83-1.49,1.15-2.29,.3-.76,.55-1.51,.74-2.23,.09-.32,.17-.67,.24-1.04,.06-.33,.12-.66,.18-.99,.06-.25,.1-.51,.15-.76,.04-.21,.08-.43,.12-.65v-.03s.01-.03,.01-.03c.14-.81-.26-1.59-.99-1.92-.3-.14-.65-.22-1.03-.22h0c-.4,0-.75,.08-1.09,.22-.04,.02-.08,.04-.12,.06,.09-.32,.16-.62,.22-.91,.13-.63,.18-1.18,.14-1.68-.08-1.07-.67-1.62-1.01-1.85l-.1-.07-.11-.05c-.13-.06-.24-.09-.48-.16-.22-.06-.45-.11-.7-.15-.23-.04-.46-.06-.68-.08-.09,0-.16,0-.23,0-.3,0-.57,.04-.82,.13l-.67,.24-.21,.59s-.08,.11-.18,.23c-.14,.16-.29,.33-.45,.51-.35-.88-1.08-1.49-2.07-1.73-.63-.16-1.28-.25-1.92-.27l-1.58-.06h0Z"/></g><g><path d="M308.81,230.53c-.52,0-.99-.14-1.4-.42-.62-.42-1.1-1.04-1.4-1.85-.06-.15-.12-.35-.19-.57-.06-.23-.11-.44-.14-.64-.34-1.6-.47-3.34-.38-5.13,.08-1.75,.22-3.52,.4-5.26l.25-2.4c.12-1.35,.2-2.75,.25-4.15,.05-1.35,.02-2.52-.08-3.5l-.03-.33,.23-.25c.29-.32,.73-.52,1.31-.59,.19-.03,.38-.04,.57-.04,.29,0,.59,.03,.89,.09,.5,.1,.96,.29,1.37,.56,.67,.45,.82,1.03,.83,1.44,0,.24-.01,.62-.05,1.16-.04,.51-.09,1.09-.15,1.75l-.2,2.07c-.07,.73-.14,1.42-.21,2.07l-.04,.37c-.04,.37-.1,.86-.16,1.49-.07,.63-.13,1.33-.2,2.1-.06,.77-.12,1.57-.17,2.4-.05,.83-.08,1.62-.08,2.38,0,.74,.02,1.43,.07,2.04,.04,.47,.1,.81,.16,1.04,.14-.18,.26-.38,.38-.59,.27-.51,.51-1.06,.7-1.64,.2-.6,.38-1.24,.52-1.89,.04-.18,.08-.37,.12-.55h0s.24-1.37,.24-1.37c.03-.18,.07-.36,.11-.53,.04-.16,.07-.32,.1-.49,.04-.19,.17-.57,.68-.79,.23-.11,.49-.16,.76-.17,.27,0,.51,.05,.73,.14,.4,.18,.64,.56,.62,1.01v.05s-.26,1.38-.26,1.38c-.1,.53-.21,1.07-.33,1.64-.11,.56-.26,1.15-.42,1.75-.17,.59-.36,1.18-.58,1.75-.22,.58-.48,1.13-.77,1.65-.08,.16-.21,.35-.36,.59-.17,.26-.38,.51-.62,.76-.24,.24-.52,.47-.84,.7-.33,.23-.7,.43-1.1,.58-.41,.13-.77,.2-1.11,.2Z"/><path class="cls-1" d="M308.19,206.15c.25,0,.49,.02,.74,.08,.41,.08,.78,.23,1.1,.45,.32,.22,.49,.49,.5,.83,0,.22-.01,.58-.05,1.08s-.09,1.08-.15,1.74c-.06,.65-.13,1.34-.2,2.07-.07,.73-.14,1.41-.21,2.06l-.04,.37c-.04,.36-.1,.85-.16,1.49-.07,.63-.13,1.34-.2,2.11-.06,.77-.12,1.58-.17,2.42s-.08,1.64-.08,2.41c0,.77,.02,1.48,.08,2.11s.15,1.14,.29,1.51c.15,.38,.28,.6,.4,.66l.21-.08c.4-.35,.75-.8,1.04-1.34,.29-.54,.54-1.13,.75-1.76,.21-.63,.39-1.28,.54-1.96,.15-.68,.28-1.32,.38-1.94h-.03c.03-.16,.07-.33,.11-.5s.07-.33,.11-.51c.02-.11,.1-.19,.25-.26,.14-.07,.3-.1,.46-.1,.16,0,.3,.03,.42,.08s.18,.15,.17,.29l-.24,1.32c-.1,.52-.21,1.06-.32,1.62-.11,.56-.25,1.13-.41,1.7-.16,.57-.35,1.13-.56,1.68s-.45,1.07-.72,1.55c-.08,.15-.19,.33-.33,.55-.14,.21-.31,.42-.52,.63-.21,.21-.46,.41-.74,.61-.28,.2-.6,.36-.94,.5-.3,.1-.58,.15-.84,.15-.37,0-.69-.1-.98-.29-.49-.33-.87-.83-1.12-1.49-.05-.14-.11-.31-.16-.51-.06-.2-.1-.38-.12-.55-.33-1.59-.46-3.25-.38-4.98,.08-1.73,.21-3.47,.4-5.22l.25-2.4c.12-1.41,.21-2.81,.25-4.2,.05-1.4,.02-2.59-.08-3.6,.17-.18,.45-.3,.85-.36,.16-.02,.32-.03,.47-.03m0-1.5c-.22,0-.45,.01-.67,.04-.76,.1-1.35,.38-1.77,.83l-.45,.5,.07,.67c.1,.94,.12,2.08,.08,3.39-.04,1.39-.13,2.77-.25,4.12l-.25,2.38c-.19,1.76-.32,3.54-.41,5.3-.09,1.84,.05,3.63,.4,5.32,.04,.22,.09,.46,.16,.7,.07,.24,.14,.45,.21,.64,.36,.94,.92,1.68,1.68,2.19,.54,.36,1.15,.55,1.82,.55,.42,0,.86-.07,1.31-.22h.04s.04-.03,.04-.03c.46-.18,.89-.4,1.27-.67,.35-.25,.67-.51,.94-.78,.28-.27,.52-.57,.72-.88,.16-.25,.29-.47,.39-.65,.3-.53,.58-1.12,.81-1.73,.22-.59,.43-1.2,.6-1.81,.17-.62,.32-1.23,.44-1.81,.12-.56,.22-1.11,.33-1.63l.25-1.34,.02-.1v-.11c.04-.76-.37-1.42-1.06-1.73-.31-.14-.66-.21-1.03-.21-.38,0-.75,.08-1.08,.24-.58,.26-.99,.75-1.1,1.35-.03,.14-.06,.29-.1,.45-.04,.18-.08,.36-.12,.55l-.45,2.32c-.08,.31-.16,.62-.25,.91,0-.05,0-.1,0-.14,0-.74,.03-1.52,.08-2.33,.05-.83,.1-1.62,.17-2.39,.06-.76,.13-1.45,.19-2.07,.07-.63,.12-1.12,.16-1.47l.04-.4c.07-.65,.14-1.34,.22-2.07,.07-.73,.14-1.42,.2-2.08,.06-.66,.11-1.25,.15-1.76,.04-.55,.06-.95,.05-1.22-.02-.83-.43-1.56-1.16-2.05-.49-.33-1.04-.55-1.64-.67-.34-.07-.69-.1-1.04-.1h0Z"/></g><g><path d="M316.36,227.36c-.18,0-.35-.01-.51-.03-.62-.08-1.17-.26-1.63-.54-.45-.27-.84-.61-1.15-1.01-.29-.38-.53-.78-.69-1.19-.06-.15-.12-.3-.17-.46-.06-.17-.1-.32-.13-.45-.17-.62-.25-1.37-.25-2.19,0-.79,.07-1.64,.22-2.51,.14-.86,.37-1.74,.68-2.61,.31-.88,.7-1.71,1.18-2.5,.48-.79,1.04-1.5,1.67-2.11,.65-.63,1.4-1.13,2.23-1.47,.52-.21,1.05-.36,1.57-.43,.15-.02,.28-.02,.4-.02,.23,0,.45,.02,.67,.07l.15-1.49c.08-.69,.14-1.39,.17-2.09,.04-.71,.06-1.4,.06-2.08,0-.67-.01-1.3-.04-1.89-.03-.58-.08-1.11-.14-1.6l-.04-.33,.22-.25c.29-.32,.72-.53,1.29-.62,.21-.03,.42-.05,.63-.05,.27,0,.54,.02,.81,.07,.51,.09,.97,.27,1.38,.53,.68,.44,.84,1.01,.86,1.42,.01,.23,0,.62-.02,1.17-.02,.52-.06,1.11-.1,1.77-.05,.66-.1,1.36-.17,2.09-.06,.74-.13,1.42-.2,2.06l-.03,.28-.1,1.25c-.13,1.3-.25,2.59-.35,3.87-.07,.88-.11,1.75-.12,2.59h.01s.02,1.08,.02,1.08c0,.54,.02,1.11,.08,1.69,.04,.45,.12,.84,.23,1.15,.15-.19,.29-.42,.41-.66,.26-.51,.48-1.08,.67-1.7,.19-.63,.35-1.29,.47-1.95,.13-.69,.25-1.35,.35-1.98,.04-.17,.06-.29,.07-.4,.02-.19,.04-.32,.06-.45,.03-.21,.16-.6,.67-.84,.24-.11,.5-.18,.77-.19h.03c.32,0,.54,.04,.73,.12,.43,.18,.67,.61,.61,1.09-.05,.24-.08,.42-.11,.61l-.09,.63c-.18,1.13-.42,2.29-.69,3.44-.29,1.2-.73,2.38-1.3,3.5-.08,.17-.2,.37-.35,.6-.16,.26-.35,.51-.57,.75-.23,.26-.5,.5-.81,.74-.33,.24-.72,.45-1.16,.6-.52,.16-.99,.24-1.41,.24-.5,0-.95-.11-1.35-.31-.36-.19-.68-.43-.94-.73-.01,.02-.02,.04-.03,.07-.25,.49-.52,.95-.81,1.37-.3,.44-.64,.83-.99,1.16-.38,.36-.82,.64-1.28,.83-.61,.19-1.13,.28-1.62,.28Zm3.12-14.66c-.06,0-.13,.01-.22,.04-.3,.11-.59,.31-.84,.61-.29,.33-.55,.74-.77,1.2-.23,.48-.42,1-.56,1.56-.15,.58-.26,1.17-.33,1.76-.07,.59-.11,1.18-.11,1.74,0,.59,.03,1.09,.08,1.53,.03,.2,.07,.44,.13,.72,.05,.25,.12,.5,.22,.73,.08,.2,.17,.37,.28,.53,.07,.1,.14,.17,.23,.22,.04,.02,.08,.03,.13,.03,.04,0,.16-.02,.41-.19,.04-.02,.19-.15,.45-.64,.22-.43,.42-.92,.6-1.46,.19-.57,.37-1.15,.53-1.75,.14-.54,.26-1.03,.33-1.45l-.04-.99c-.01-.65,0-1.29,.02-1.93,.02-.55,.06-1.12,.11-1.69-.13-.18-.28-.35-.46-.51-.06-.05-.11-.07-.18-.07Z"/><path class="cls-1" d="M322.72,200.26c.22,0,.45,.02,.68,.06,.41,.07,.78,.22,1.11,.42,.33,.21,.5,.48,.51,.82,0,.22,0,.58-.02,1.1-.02,.51-.06,1.1-.1,1.75-.05,.65-.1,1.35-.17,2.08-.06,.73-.13,1.41-.2,2.04l-.16,1.55h.03c-.13,1.29-.25,2.59-.35,3.88-.1,1.29-.14,2.54-.11,3.73h.03c0,.58,.03,1.17,.08,1.75,.06,.59,.17,1.08,.33,1.48,.18,.45,.34,.69,.47,.71l.23-.09c.4-.35,.74-.8,1.02-1.35,.28-.56,.51-1.16,.71-1.82,.2-.65,.36-1.33,.49-2.03s.25-1.36,.35-1.99c.04-.16,.06-.3,.08-.44,.02-.14,.03-.28,.05-.43,.02-.11,.1-.2,.25-.27s.31-.11,.48-.12c.02,0,.04,0,.06,0,.14,0,.26,.02,.37,.07,.12,.05,.17,.15,.15,.3-.04,.2-.07,.4-.1,.6-.03,.2-.06,.41-.09,.63-.18,1.1-.4,2.23-.68,3.37-.28,1.15-.69,2.26-1.24,3.33-.08,.15-.19,.34-.32,.55-.13,.22-.3,.43-.49,.65s-.43,.43-.7,.63c-.27,.2-.59,.37-.96,.5-.42,.13-.81,.2-1.16,.2-.37,0-.71-.08-1-.23-.56-.29-.97-.75-1.23-1.38l-.15-.36c-.19,.48-.4,.95-.62,1.4-.23,.46-.48,.88-.75,1.27s-.57,.74-.89,1.04c-.32,.3-.67,.53-1.05,.69-.48,.15-.92,.22-1.33,.22-.14,0-.28,0-.41-.03-.52-.07-.97-.21-1.34-.44-.37-.22-.69-.5-.94-.83-.26-.33-.45-.67-.59-1.01-.06-.14-.11-.28-.16-.42-.05-.14-.08-.27-.11-.38-.16-.58-.23-1.26-.23-2.02,0-.77,.07-1.56,.21-2.38s.36-1.65,.65-2.49c.29-.84,.67-1.62,1.11-2.36,.45-.74,.96-1.39,1.55-1.96,.58-.57,1.25-1.01,1.99-1.31,.47-.19,.93-.32,1.39-.38,.1-.01,.2-.02,.29-.02,.48,0,.92,.13,1.31,.39l.09-.82,.17-1.67c.08-.7,.14-1.41,.18-2.13,.04-.72,.06-1.42,.06-2.11,0-.68-.01-1.33-.04-1.93-.03-.6-.08-1.15-.14-1.65,.17-.19,.44-.31,.83-.37,.17-.03,.34-.04,.52-.04m-5.02,23.86s.06,0,.09,0c.21-.02,.46-.12,.75-.32,.22-.15,.45-.45,.69-.91s.45-.98,.65-1.56c.2-.58,.38-1.18,.54-1.79,.16-.61,.28-1.14,.36-1.6l-.04-1.07c-.01-.62,0-1.24,.02-1.87s.07-1.26,.13-1.91c-.19-.32-.44-.62-.74-.88-.19-.17-.42-.25-.68-.25-.14,0-.29,.02-.44,.07-.46,.17-.85,.44-1.19,.83s-.63,.85-.88,1.37-.45,1.09-.61,1.7c-.16,.61-.27,1.22-.35,1.85-.08,.63-.12,1.24-.12,1.83,0,.59,.03,1.13,.08,1.61,.03,.23,.08,.49,.14,.79,.06,.3,.15,.58,.26,.86,.1,.24,.21,.46,.34,.66,.13,.2,.29,.35,.47,.46,.16,.09,.33,.14,.51,.14m5.02-25.36c-.25,0-.5,.02-.74,.05-.75,.11-1.33,.4-1.74,.86l-.45,.51,.08,.67c.06,.47,.1,.99,.14,1.55,.03,.58,.04,1.2,.04,1.84,0,.65-.02,1.33-.06,2.03-.03,.67-.09,1.34-.17,2.04l-.08,.77c-.15,0-.3,0-.45,.02h-.03s-.03,0-.03,0c-.58,.08-1.16,.24-1.74,.48-.92,.38-1.75,.92-2.47,1.63-.67,.65-1.27,1.41-1.78,2.25-.5,.83-.92,1.72-1.24,2.64-.32,.91-.56,1.83-.72,2.74-.15,.91-.23,1.8-.23,2.64,0,.88,.09,1.68,.28,2.38,.03,.14,.08,.3,.14,.48,.06,.18,.12,.35,.19,.52,.19,.47,.46,.93,.8,1.37,.36,.47,.82,.88,1.36,1.2,.54,.32,1.18,.54,1.91,.63,.2,.03,.4,.04,.61,.04,.56,0,1.16-.1,1.78-.29l.06-.02,.06-.02c.55-.22,1.06-.56,1.52-.98,.39-.37,.76-.8,1.09-1.28,.15-.22,.3-.45,.44-.69,.12,.08,.25,.16,.38,.22,.5,.26,1.07,.4,1.69,.4,.5,0,1.04-.09,1.61-.27h.03s.03-.02,.03-.02c.51-.18,.97-.42,1.36-.71,.35-.26,.67-.55,.93-.84,.24-.27,.46-.56,.64-.85,.16-.26,.29-.48,.38-.66,.6-1.17,1.06-2.41,1.37-3.67,.28-1.17,.52-2.34,.7-3.49,.03-.2,.06-.38,.08-.55v-.1c.04-.17,.07-.34,.1-.51v-.06s.02-.06,.02-.06c.11-.81-.32-1.57-1.06-1.88-.3-.12-.62-.18-.95-.18-.04,0-.09,0-.13,0-.37,.02-.72,.11-1.05,.26-.61,.29-1.01,.8-1.09,1.41-.02,.15-.04,.28-.05,.41v.06c-.02,.08-.03,.17-.05,.27v.05s-.02,.05-.02,.05c-.11,.62-.22,1.28-.35,1.97-.1,.53-.22,1.07-.37,1.58v-2.17s0,0,0,0c.02-.47,.05-.94,.08-1.42,.1-1.25,.21-2.54,.35-3.85l.26-2.52h-.03c.03-.34,.07-.7,.1-1.08,.07-.74,.12-1.44,.17-2.1,.05-.67,.08-1.27,.11-1.79,.03-.57,.03-.96,.02-1.23-.04-.83-.46-1.54-1.2-2.01-.5-.32-1.05-.53-1.66-.64-.32-.06-.64-.09-.95-.09h0Zm-4.92,23.61s-.02-.04-.03-.07c-.08-.2-.14-.4-.18-.59-.06-.28-.1-.51-.13-.72-.04-.37-.07-.84-.07-1.4,0-.53,.04-1.08,.11-1.64,.07-.56,.17-1.12,.31-1.66,.13-.51,.3-.99,.51-1.43,.19-.4,.41-.75,.66-1.03,.11-.13,.23-.23,.36-.31-.04,.47-.06,.94-.08,1.4-.03,.65-.04,1.31-.02,1.96l.04,.94c-.07,.39-.17,.83-.3,1.31-.16,.59-.33,1.16-.51,1.7-.17,.51-.36,.96-.56,1.36-.04,.07-.07,.13-.09,.17h0Z"/></g></g><g><path d="M341.55,213.64c-.81,0-1.54-.48-1.85-1.23-.42-1.02,.06-2.19,1.08-2.62,3.84-1.59,7.55-3.17,11.01-4.67,.26-.11,.52-.17,.8-.17,.8,0,1.52,.47,1.84,1.2,.44,1.01-.03,2.19-1.04,2.63-3.48,1.51-7.21,3.1-11.08,4.7-.24,.1-.5,.15-.77,.15Zm21.99-9.59c-.78,0-1.49-.46-1.82-1.16-.46-1-.02-2.19,.98-2.66,3.81-1.76,7.43-3.5,10.76-5.16,.28-.14,.59-.21,.9-.21,.76,0,1.45,.42,1.79,1.1,.24,.48,.28,1.02,.11,1.53-.17,.51-.52,.92-1,1.16-3.36,1.69-7.02,3.44-10.87,5.22-.27,.12-.55,.18-.84,.18Zm21.41-10.81c-.72,0-1.39-.39-1.74-1.01-.54-.96-.21-2.18,.75-2.73,3.87-2.19,7.24-4.29,10-6.24,.34-.24,.74-.37,1.15-.37,.65,0,1.26,.32,1.63,.85,.64,.9,.42,2.15-.48,2.79-2.86,2.02-6.34,4.2-10.34,6.46-.3,.17-.64,.26-.98,.26Zm18.97-14.4c-.41,0-.81-.12-1.14-.36-.9-.63-1.13-1.88-.5-2.79,.87-1.24,1.31-2.34,1.31-3.26,0-.49,0-1.98-3.09-3.62-.47-.25-.82-.67-.97-1.18s-.1-1.05,.15-1.52c.35-.65,1.02-1.06,1.77-1.06,.32,0,.65,.08,.94,.23,3.46,1.84,5.21,4.25,5.21,7.15,0,1.75-.68,3.62-2.03,5.55-.37,.54-.99,.86-1.64,.86Zm-13.98-13.06c-.1,0-.2,0-.31-.02-3.38-.52-7.33-.91-11.75-1.14-1.1-.06-1.95-1-1.89-2.1,.05-1.06,.94-1.89,2.02-1.89,4.64,.24,8.73,.63,12.24,1.18,1.09,.17,1.84,1.19,1.67,2.28-.15,.98-.98,1.69-1.97,1.69Zm-35.96-1.07c-1.05,0-1.93-.82-2-1.88-.03-.53,.14-1.05,.5-1.45,.35-.4,.84-.64,1.38-.67,.55-.03,5.5-.32,12.11-.35,1.11,0,2.01,.89,2.01,1.99,0,.53-.2,1.04-.58,1.42-.38,.38-.88,.59-1.41,.59-6.64,.03-11.67,.33-11.88,.35h-.13Z"/><path class="cls-1" d="M365.98,160.87c.83,0,1.5,.67,1.5,1.49,0,.83-.66,1.5-1.49,1.51-6.82,.04-11.87,.34-11.92,.35-.03,0-.06,0-.09,0-.79,0-1.45-.61-1.5-1.41-.05-.83,.58-1.54,1.4-1.59,.05,0,5.18-.32,12.08-.35h0m12.03,.26s.04,0,.06,0c4.54,.24,8.61,.63,12.1,1.17,.82,.13,1.38,.89,1.25,1.71-.12,.74-.75,1.27-1.48,1.27-.08,0-.15,0-.23-.02-3.39-.53-7.36-.91-11.8-1.14-.83-.04-1.46-.75-1.42-1.58,.04-.81,.73-1.42,1.52-1.42m23.44,4.42c.24,0,.48,.06,.7,.18,3.28,1.75,4.95,4,4.95,6.71,0,1.65-.65,3.42-1.94,5.26-.29,.42-.76,.64-1.23,.64-.3,0-.6-.09-.86-.27-.68-.47-.85-1.41-.37-2.09,.93-1.33,1.4-2.52,1.4-3.54,0-.56,0-2.28-3.35-4.06-.73-.39-1.01-1.3-.62-2.03,.27-.51,.79-.8,1.33-.8m-6.32,17.84c.47,0,.93,.22,1.23,.64,.48,.68,.32,1.61-.36,2.09-2.85,2.01-6.31,4.18-10.29,6.43-.23,.13-.49,.19-.74,.19-.52,0-1.03-.27-1.31-.76-.41-.72-.15-1.64,.57-2.04,3.9-2.21,7.27-4.32,10.04-6.27,.26-.19,.56-.28,.86-.28m-20.76,11.97c.55,0,1.08,.3,1.34,.83,.37,.74,.07,1.64-.67,2.01-3.35,1.68-7,3.43-10.86,5.21-.2,.09-.42,.14-.63,.14-.57,0-1.11-.32-1.36-.87-.35-.75-.02-1.64,.73-1.99,3.83-1.77,7.45-3.51,10.77-5.17,.22-.11,.45-.16,.67-.16m-21.77,10.09c.58,0,1.13,.34,1.38,.9,.33,.76-.02,1.64-.78,1.97-3.52,1.53-7.24,3.11-11.07,4.7-.19,.08-.38,.11-.57,.11-.59,0-1.15-.35-1.39-.92-.32-.77,.05-1.64,.81-1.96,3.81-1.58,7.52-3.15,11.02-4.68,.2-.08,.4-.12,.6-.12m13.39-45.58h0c-6.63,.03-11.59,.32-12.14,.35-.68,.04-1.29,.34-1.73,.84-.44,.5-.66,1.14-.62,1.81,.08,1.31,1.18,2.34,2.49,2.34,.05,0,.1,0,.16,0,.53-.03,5.35-.31,11.86-.34,1.38,0,2.49-1.13,2.49-2.51,0-1.37-1.13-2.49-2.5-2.49h0Zm12.03,.26h0c-1.34,0-2.45,1.04-2.52,2.37-.07,1.38,.99,2.56,2.37,2.63,4.41,.23,8.34,.61,11.7,1.13,.13,.02,.26,.03,.39,.03,1.24,0,2.28-.89,2.47-2.12,.21-1.36-.72-2.64-2.09-2.85-3.53-.55-7.63-.95-12.21-1.18h-.11Zm23.44,4.42c-.93,0-1.78,.51-2.21,1.33-.65,1.22-.18,2.73,1.03,3.38,2.82,1.5,2.82,2.77,2.82,3.18,0,.8-.42,1.83-1.22,2.97-.79,1.13-.51,2.69,.62,3.48,.42,.29,.92,.45,1.43,.45,.82,0,1.58-.4,2.05-1.07,1.4-2.01,2.12-3.98,2.12-5.84,0-3.11-1.84-5.66-5.48-7.59-.36-.19-.77-.29-1.17-.29h0Zm-6.32,17.84c-.52,0-1.02,.16-1.44,.46-2.75,1.94-6.1,4.03-9.96,6.22-1.2,.68-1.62,2.21-.94,3.41,.44,.78,1.28,1.27,2.18,1.27,.43,0,.86-.11,1.23-.32,4.01-2.27,7.5-4.45,10.38-6.48,1.13-.8,1.39-2.36,.6-3.48-.47-.66-1.23-1.06-2.04-1.06h0Zm-20.76,11.97h0c-.39,0-.77,.09-1.12,.27-3.32,1.66-6.93,3.4-10.74,5.16-1.25,.58-1.8,2.07-1.22,3.32,.41,.88,1.3,1.45,2.27,1.45,.36,0,.71-.08,1.05-.23,3.86-1.78,7.52-3.54,10.89-5.23,.6-.3,1.04-.81,1.25-1.45,.21-.63,.16-1.31-.14-1.91-.43-.85-1.28-1.38-2.23-1.38h0Zm-21.77,10.09h0c-.34,0-.68,.07-.99,.2-3.47,1.51-7.17,3.08-11.01,4.67-1.27,.53-1.88,1.99-1.35,3.27,.39,.94,1.3,1.54,2.31,1.54,.33,0,.65-.06,.96-.19,3.87-1.61,7.6-3.19,11.08-4.7,1.26-.55,1.84-2.03,1.3-3.29-.4-.91-1.3-1.5-2.29-1.5h0Z"/></g><g><path d="M55.87,278.63c-3.83,0-7.42-.08-10.67-.24-.53-.02-1.02-.26-1.38-.65-.36-.4-.54-.91-.52-1.44,.05-1.07,.93-1.9,2-1.9,3.27,.16,6.79,.23,10.56,.23h1.43c1.11,0,2,.89,2.01,1.99,0,.53-.2,1.04-.58,1.42-.38,.38-.88,.59-1.41,.59h-1.43s0,0,0,0Zm13.43-.28c-1.08,0-1.96-.84-2-1.92-.04-1.1,.82-2.03,1.92-2.08,3.8-.15,7.82-.35,11.95-.61h.12c1.06,0,1.94,.82,2,1.87,.03,.53-.14,1.05-.5,1.45-.35,.4-.84,.64-1.38,.67-4.11,.26-8.16,.47-12.04,.62h-.08Zm-35.96-1.09c-.1,0-.21,0-.32-.02-5.88-.94-9.87-2.34-12.2-4.29-.41-.34-.66-.82-.71-1.36-.05-.53,.11-1.05,.46-1.46,.38-.46,.94-.72,1.54-.72,.47,0,.92,.17,1.28,.46,1.74,1.45,5.2,2.6,10.27,3.41,1.09,.17,1.83,1.2,1.66,2.29-.16,.98-.99,1.68-1.97,1.68Zm59.93-.4c-1.03,0-1.91-.81-1.99-1.83-.09-1.1,.73-2.07,1.83-2.16,7.11-.59,11.87-1.12,11.91-1.12,.08,0,.14-.01,.21-.01,1.01,0,1.89,.78,2,1.78,.12,1.1-.67,2.09-1.77,2.21-.87,.09-5.43,.58-12.03,1.13-.06,0-.11,0-.17,0Zm-68.89-13.49c-.55,0-1.09-.23-1.46-.64-.75-.81-.71-2.07,.1-2.83,2.37-2.21,5.74-4.65,10.02-7.27,.31-.19,.67-.29,1.04-.29,.7,0,1.34,.36,1.71,.96,.28,.46,.36,.99,.24,1.51-.12,.52-.45,.96-.9,1.24-4.05,2.47-7.21,4.75-9.38,6.78-.37,.35-.86,.54-1.36,.54Zm20.19-12.84c-.75,0-1.43-.42-1.78-1.08-.5-.98-.12-2.19,.86-2.69,3.28-1.69,6.93-3.47,10.85-5.29,.27-.12,.55-.19,.84-.19,.78,0,1.49,.45,1.81,1.16,.47,1,.03,2.19-.97,2.66-3.87,1.8-7.48,3.56-10.71,5.22-.28,.15-.6,.22-.91,.22Z"/><path class="cls-1" d="M55.36,241.77c.57,0,1.11,.32,1.36,.87,.35,.75,.02,1.64-.73,1.99-3.89,1.81-7.5,3.57-10.73,5.23-.22,.11-.45,.17-.69,.17-.54,0-1.07-.3-1.33-.81-.38-.74-.09-1.64,.65-2.02,3.27-1.68,6.91-3.46,10.84-5.29,.2-.09,.42-.14,.63-.14m-21.27,11.08c.51,0,1,.26,1.28,.72,.43,.71,.21,1.63-.5,2.06-4.08,2.49-7.27,4.79-9.46,6.84-.29,.27-.66,.4-1.02,.4-.4,0-.8-.16-1.1-.48-.57-.61-.53-1.55,.07-2.12,2.34-2.18,5.69-4.61,9.94-7.2,.24-.15,.51-.22,.78-.22m-11.98,17.06c.34,0,.68,.11,.96,.35,1.81,1.51,5.35,2.69,10.52,3.52,.82,.13,1.38,.9,1.24,1.72-.12,.74-.76,1.26-1.48,1.26-.08,0-.16,0-.24-.02-5.79-.93-9.7-2.29-11.96-4.18-.64-.53-.72-1.48-.19-2.11,.3-.36,.72-.54,1.15-.54m83.13,2.32c.74,0,1.42,.56,1.5,1.33,.09,.82-.5,1.56-1.33,1.66-.05,0-4.84,.53-12.01,1.13-.04,0-.08,0-.13,0-.77,0-1.43-.59-1.49-1.38-.07-.83,.54-1.55,1.37-1.62,7.13-.59,11.88-1.12,11.93-1.12,.05,0,.1,0,.15,0m-23.95,2c.78,0,1.45,.61,1.5,1.41,.05,.83-.58,1.54-1.4,1.59-4.14,.26-8.19,.47-12.03,.62-.02,0-.04,0-.06,0-.8,0-1.47-.63-1.5-1.44-.03-.83,.61-1.52,1.44-1.56,3.82-.15,7.84-.35,11.96-.61,.03,0,.06,0,.09,0m-36,.66s.05,0,.07,0c3.19,.15,6.72,.23,10.49,.23h1.43s0,0,0,0c.83,0,1.5,.67,1.5,1.49,0,.83-.67,1.5-1.49,1.51h-1.43c-3.83,0-7.41-.08-10.65-.23-.83-.04-1.47-.74-1.43-1.57,.04-.8,.71-1.43,1.5-1.43m10.06-34.13h0c-.36,0-.72,.08-1.05,.23-3.93,1.83-7.59,3.61-10.88,5.3-1.23,.63-1.71,2.14-1.08,3.37,.43,.84,1.28,1.36,2.22,1.36,.39,0,.79-.1,1.14-.28,3.23-1.66,6.83-3.42,10.7-5.22,.61-.28,1.06-.78,1.29-1.41,.23-.63,.2-1.31-.08-1.91-.41-.88-1.3-1.44-2.27-1.44h0Zm-21.27,11.08h0c-.46,0-.91,.13-1.3,.37-4.31,2.63-7.71,5.1-10.1,7.33-1.01,.94-1.06,2.53-.12,3.53,.47,.5,1.14,.79,1.83,.79,.64,0,1.24-.24,1.71-.67,2.15-2,5.27-4.26,9.3-6.71,.57-.35,.97-.9,1.13-1.55,.16-.65,.05-1.32-.3-1.89-.46-.75-1.26-1.2-2.13-1.2h0Zm-11.98,17.06c-.74,0-1.44,.33-1.92,.9-.43,.51-.63,1.16-.57,1.83,.06,.67,.38,1.27,.89,1.69,2.4,2,6.47,3.44,12.44,4.4,.14,.02,.27,.03,.4,.03,1.23,0,2.27-.89,2.47-2.1,.22-1.36-.71-2.65-2.07-2.86-6.21-.99-8.89-2.34-10.03-3.3-.45-.37-1.02-.58-1.6-.58h0Zm83.13,2.32c-.09,0-.17,0-.26,.01-.05,0-4.83,.53-11.91,1.12-1.37,.12-2.4,1.33-2.28,2.7,.11,1.29,1.2,2.29,2.49,2.29,.07,0,.13,0,.2,0,6.62-.55,11.18-1.04,12.03-1.13,1.39-.16,2.38-1.39,2.23-2.76-.14-1.27-1.21-2.22-2.5-2.22h0Zm-23.95,2s-.1,0-.14,0c-4.13,.26-8.15,.46-11.94,.61-1.38,.05-2.45,1.22-2.4,2.59,.05,1.35,1.15,2.4,2.5,2.4,.04,0,.07,0,.11,0,3.88-.15,7.93-.36,12.04-.62,.67-.04,1.28-.34,1.72-.84,.44-.5,.66-1.14,.62-1.81-.08-1.31-1.18-2.34-2.5-2.34h0Zm-36,.66c-1.34,0-2.44,1.05-2.5,2.38-.03,.67,.2,1.31,.65,1.8,.45,.49,1.06,.78,1.73,.82,3.26,.16,6.86,.24,10.7,.24h1.43c.67,0,1.3-.27,1.77-.74,.47-.47,.73-1.1,.72-1.77,0-1.37-1.13-2.49-2.5-2.49h-1.44c-3.76,0-7.28-.07-10.44-.23-.04,0-.08,0-.12,0h0Z"/></g></svg>